<mxfile host="app.diagrams.net" agent="Mozilla/5.0 (X11; Ubuntu; Linux x86_64; rv:141.0) Gecko/20100101 Firefox/141.0" version="28.1.0">
  <diagram name="Page-1" id="xIOkTCL3K24IWR9tix57">
    <mxGraphModel dx="655" dy="583" grid="1" gridSize="10" guides="1" tooltips="1" connect="1" arrows="1" fold="1" page="1" pageScale="1" pageWidth="827" pageHeight="1169" math="0" shadow="0">
      <root>
        <mxCell id="0" />
        <mxCell id="1" style="" parent="0" />
        <mxCell id="3SZMAM52sG9_Gdmyh299-129" value="" style="rounded=1;whiteSpace=wrap;html=1;shadow=0;treeFolding=0;treeMoving=0;fixDash=0;collapsible=0;recursiveResize=1;expand=1;backgroundOutline=0;movableLabel=0;autosize=0;fixedWidth=0;comic=0;" parent="1" vertex="1">
          <mxGeometry x="240" y="470" width="500" height="630" as="geometry" />
        </mxCell>
        <mxCell id="3SZMAM52sG9_Gdmyh299-130" value="" style="rounded=1;whiteSpace=wrap;html=1;shadow=0;treeFolding=0;treeMoving=0;fixDash=0;collapsible=0;recursiveResize=1;expand=1;backgroundOutline=0;movableLabel=0;autosize=0;fixedWidth=0;comic=0;" parent="1" vertex="1">
          <mxGeometry x="250" y="480" width="480" height="600" as="geometry" />
        </mxCell>
        <mxCell id="3SZMAM52sG9_Gdmyh299-131" value="" style="rounded=1;whiteSpace=wrap;html=1;shadow=0;glass=0;perimeterSpacing=1;" parent="1" vertex="1">
          <mxGeometry x="310" y="490" width="412.5" height="570" as="geometry" />
        </mxCell>
        <mxCell id="3SZMAM52sG9_Gdmyh299-132" style="edgeStyle=orthogonalEdgeStyle;rounded=0;orthogonalLoop=1;jettySize=auto;html=1;exitX=0.55;exitY=0.95;exitDx=0;exitDy=0;exitPerimeter=0;entryX=0.5;entryY=0;entryDx=0;entryDy=0;shadow=0;" parent="1" source="3SZMAM52sG9_Gdmyh299-133" target="3SZMAM52sG9_Gdmyh299-136" edge="1">
          <mxGeometry relative="1" as="geometry">
            <Array as="points">
              <mxPoint x="524" y="810" />
              <mxPoint x="390" y="810" />
            </Array>
          </mxGeometry>
        </mxCell>
        <mxCell id="3SZMAM52sG9_Gdmyh299-133" value="" style="ellipse;shape=cloud;whiteSpace=wrap;html=1;rotation=0;dashed=1;dashPattern=8 8;shadow=0;" parent="1" vertex="1">
          <mxGeometry x="290" y="460" width="426.25" height="347.5" as="geometry" />
        </mxCell>
        <mxCell id="JFQzC-C9s6JUPjfdPCx0-3" style="edgeStyle=orthogonalEdgeStyle;rounded=0;orthogonalLoop=1;jettySize=auto;html=1;exitX=0.997;exitY=0.147;exitDx=0;exitDy=0;entryX=0;entryY=0.5;entryDx=0;entryDy=0;startArrow=classic;startFill=1;exitPerimeter=0;" parent="1" source="3SZMAM52sG9_Gdmyh299-136" target="3SZMAM52sG9_Gdmyh299-139" edge="1">
          <mxGeometry relative="1" as="geometry">
            <Array as="points" />
          </mxGeometry>
        </mxCell>
        <mxCell id="3SZMAM52sG9_Gdmyh299-136" value="Prometheus" style="html=1;whiteSpace=wrap;shadow=0;verticalAlign=top;" parent="1" vertex="1">
          <mxGeometry x="350" y="840" width="80" height="170" as="geometry" />
        </mxCell>
        <mxCell id="NnatkJBT9xsz4FV3scjZ-47" style="edgeStyle=orthogonalEdgeStyle;rounded=0;orthogonalLoop=1;jettySize=auto;html=1;exitX=0.5;exitY=1;exitDx=0;exitDy=0;entryX=0.5;entryY=0;entryDx=0;entryDy=0;startArrow=classic;startFill=1;" parent="1" source="3SZMAM52sG9_Gdmyh299-139" target="NnatkJBT9xsz4FV3scjZ-46" edge="1">
          <mxGeometry relative="1" as="geometry" />
        </mxCell>
        <mxCell id="3SZMAM52sG9_Gdmyh299-139" value="&lt;div&gt;Grafana&lt;/div&gt;" style="html=1;whiteSpace=wrap;shadow=0;" parent="1" vertex="1">
          <mxGeometry x="463.13" y="840" width="80" height="50" as="geometry" />
        </mxCell>
        <mxCell id="3SZMAM52sG9_Gdmyh299-141" value="TSDB" style="shape=cylinder;whiteSpace=wrap;html=1;boundedLbl=1;backgroundOutline=1;shadow=0;" parent="1" vertex="1">
          <mxGeometry x="360.63" y="902.5" width="58.75" height="65" as="geometry" />
        </mxCell>
        <mxCell id="3SZMAM52sG9_Gdmyh299-145" value="&lt;div&gt;Hardware&lt;/div&gt;" style="text;html=1;align=center;verticalAlign=middle;resizable=0;points=[];autosize=1;strokeColor=none;fillColor=none;shadow=0;" parent="1" vertex="1">
          <mxGeometry x="544" y="1080" width="80" height="30" as="geometry" />
        </mxCell>
        <mxCell id="3SZMAM52sG9_Gdmyh299-146" value="Host OS" style="text;html=1;align=center;verticalAlign=middle;resizable=0;points=[];autosize=1;strokeColor=none;fillColor=none;shadow=0;" parent="1" vertex="1">
          <mxGeometry x="534" y="1060" width="70" height="30" as="geometry" />
        </mxCell>
        <mxCell id="3SZMAM52sG9_Gdmyh299-149" value="&lt;div&gt;Docker Engine&lt;/div&gt;" style="text;html=1;align=center;verticalAlign=middle;resizable=0;points=[];autosize=1;strokeColor=none;fillColor=none;shadow=0;" parent="1" vertex="1">
          <mxGeometry x="524" y="1037" width="100" height="30" as="geometry" />
        </mxCell>
        <mxCell id="NnatkJBT9xsz4FV3scjZ-24" style="edgeStyle=orthogonalEdgeStyle;rounded=0;orthogonalLoop=1;jettySize=auto;html=1;exitX=0.5;exitY=1;exitDx=0;exitDy=0;entryX=0.5;entryY=0;entryDx=0;entryDy=0;" parent="1" source="3SZMAM52sG9_Gdmyh299-159" target="NnatkJBT9xsz4FV3scjZ-18" edge="1">
          <mxGeometry relative="1" as="geometry" />
        </mxCell>
        <mxCell id="NnatkJBT9xsz4FV3scjZ-54" style="rounded=0;orthogonalLoop=1;jettySize=auto;html=1;exitX=1;exitY=0;exitDx=0;exitDy=0;entryX=0;entryY=1;entryDx=0;entryDy=0;dashed=1;dashPattern=8 8;strokeColor=#FF0000;fontColor=#FF0000;" parent="1" source="3SZMAM52sG9_Gdmyh299-159" target="NnatkJBT9xsz4FV3scjZ-49" edge="1">
          <mxGeometry relative="1" as="geometry" />
        </mxCell>
        <mxCell id="3SZMAM52sG9_Gdmyh299-159" value="&lt;font style=&quot;font-size: 11px;&quot;&gt;Dispositivo Virtual 1&lt;/font&gt;" style="rhombus;whiteSpace=wrap;html=1;shadow=0;" parent="1" vertex="1">
          <mxGeometry x="326" y="573.89" width="87.5" height="72.22" as="geometry" />
        </mxCell>
        <mxCell id="NnatkJBT9xsz4FV3scjZ-40" style="edgeStyle=orthogonalEdgeStyle;rounded=0;orthogonalLoop=1;jettySize=auto;html=1;exitX=0.5;exitY=1;exitDx=0;exitDy=0;entryX=0;entryY=0.5;entryDx=0;entryDy=0;" parent="1" source="NnatkJBT9xsz4FV3scjZ-1" target="3SZMAM52sG9_Gdmyh299-136" edge="1">
          <mxGeometry relative="1" as="geometry" />
        </mxCell>
        <mxCell id="NnatkJBT9xsz4FV3scjZ-1" value="Telegraf" style="ellipse;whiteSpace=wrap;html=1;aspect=fixed;shadow=0;fontSize=10;" parent="1" vertex="1">
          <mxGeometry x="259" y="780" width="40" height="40" as="geometry" />
        </mxCell>
        <mxCell id="NnatkJBT9xsz4FV3scjZ-25" style="edgeStyle=orthogonalEdgeStyle;rounded=0;orthogonalLoop=1;jettySize=auto;html=1;exitX=0.5;exitY=1;exitDx=0;exitDy=0;entryX=0.5;entryY=0;entryDx=0;entryDy=0;" parent="1" source="NnatkJBT9xsz4FV3scjZ-2" target="NnatkJBT9xsz4FV3scjZ-20" edge="1">
          <mxGeometry relative="1" as="geometry" />
        </mxCell>
        <mxCell id="NnatkJBT9xsz4FV3scjZ-55" style="edgeStyle=orthogonalEdgeStyle;rounded=0;orthogonalLoop=1;jettySize=auto;html=1;exitX=1;exitY=0;exitDx=0;exitDy=0;entryX=0.5;entryY=1;entryDx=0;entryDy=0;dashed=1;dashPattern=8 8;strokeColor=#FF0000;fontColor=#FF0000;" parent="1" source="NnatkJBT9xsz4FV3scjZ-2" target="NnatkJBT9xsz4FV3scjZ-50" edge="1">
          <mxGeometry relative="1" as="geometry" />
        </mxCell>
        <mxCell id="NnatkJBT9xsz4FV3scjZ-2" value="&lt;font style=&quot;font-size: 11px;&quot;&gt;Dispositivo Virtual 2&lt;/font&gt;" style="rhombus;whiteSpace=wrap;html=1;shadow=0;" parent="1" vertex="1">
          <mxGeometry x="395" y="610" width="87.5" height="72.22" as="geometry" />
        </mxCell>
        <mxCell id="NnatkJBT9xsz4FV3scjZ-63" style="edgeStyle=orthogonalEdgeStyle;rounded=0;orthogonalLoop=1;jettySize=auto;html=1;exitX=0.5;exitY=0;exitDx=0;exitDy=0;entryX=0.5;entryY=1;entryDx=0;entryDy=0;dashed=1;dashPattern=8 8;strokeColor=#FF0000;fontColor=#FF0000;" parent="1" source="NnatkJBT9xsz4FV3scjZ-3" target="NnatkJBT9xsz4FV3scjZ-51" edge="1">
          <mxGeometry relative="1" as="geometry" />
        </mxCell>
        <mxCell id="NnatkJBT9xsz4FV3scjZ-65" style="edgeStyle=orthogonalEdgeStyle;rounded=0;orthogonalLoop=1;jettySize=auto;html=1;exitX=0.5;exitY=1;exitDx=0;exitDy=0;entryX=0.5;entryY=0;entryDx=0;entryDy=0;" parent="1" edge="1">
          <mxGeometry relative="1" as="geometry">
            <mxPoint x="508" y="712.22" as="sourcePoint" />
            <mxPoint x="508.99" y="738.75" as="targetPoint" />
          </mxGeometry>
        </mxCell>
        <mxCell id="NnatkJBT9xsz4FV3scjZ-3" value="&lt;font style=&quot;font-size: 11px;&quot;&gt;Dispositivo Virtual 3&lt;/font&gt;" style="rhombus;whiteSpace=wrap;html=1;shadow=0;" parent="1" vertex="1">
          <mxGeometry x="465.25" y="640" width="87.5" height="72.22" as="geometry" />
        </mxCell>
        <mxCell id="NnatkJBT9xsz4FV3scjZ-29" style="edgeStyle=orthogonalEdgeStyle;rounded=0;orthogonalLoop=1;jettySize=auto;html=1;exitX=0.5;exitY=1;exitDx=0;exitDy=0;entryX=0.5;entryY=0;entryDx=0;entryDy=0;" parent="1" source="NnatkJBT9xsz4FV3scjZ-4" target="NnatkJBT9xsz4FV3scjZ-19" edge="1">
          <mxGeometry relative="1" as="geometry" />
        </mxCell>
        <mxCell id="NnatkJBT9xsz4FV3scjZ-58" style="rounded=0;orthogonalLoop=1;jettySize=auto;html=1;exitX=0;exitY=0;exitDx=0;exitDy=0;entryX=1;entryY=1;entryDx=0;entryDy=0;dashed=1;dashPattern=8 8;strokeColor=#FF0000;fontColor=#FF0000;" parent="1" source="NnatkJBT9xsz4FV3scjZ-4" target="NnatkJBT9xsz4FV3scjZ-53" edge="1">
          <mxGeometry relative="1" as="geometry" />
        </mxCell>
        <mxCell id="NnatkJBT9xsz4FV3scjZ-4" value="&lt;font style=&quot;font-size: 11px;&quot;&gt;Dispositivo Virtual 5&lt;/font&gt;" style="rhombus;whiteSpace=wrap;html=1;shadow=0;" parent="1" vertex="1">
          <mxGeometry x="590" y="567.78" width="87.5" height="72.22" as="geometry" />
        </mxCell>
        <mxCell id="NnatkJBT9xsz4FV3scjZ-28" style="edgeStyle=orthogonalEdgeStyle;rounded=0;orthogonalLoop=1;jettySize=auto;html=1;exitX=0.5;exitY=1;exitDx=0;exitDy=0;entryX=0.5;entryY=0;entryDx=0;entryDy=0;" parent="1" source="NnatkJBT9xsz4FV3scjZ-5" target="NnatkJBT9xsz4FV3scjZ-21" edge="1">
          <mxGeometry relative="1" as="geometry" />
        </mxCell>
        <mxCell id="NnatkJBT9xsz4FV3scjZ-57" style="edgeStyle=orthogonalEdgeStyle;rounded=0;orthogonalLoop=1;jettySize=auto;html=1;exitX=0;exitY=0;exitDx=0;exitDy=0;entryX=0.5;entryY=1;entryDx=0;entryDy=0;dashed=1;dashPattern=8 8;strokeColor=#FF0000;fontColor=#FF0000;" parent="1" source="NnatkJBT9xsz4FV3scjZ-5" target="NnatkJBT9xsz4FV3scjZ-52" edge="1">
          <mxGeometry relative="1" as="geometry" />
        </mxCell>
        <mxCell id="NnatkJBT9xsz4FV3scjZ-5" value="&lt;div&gt;&lt;font style=&quot;font-size: 11px;&quot;&gt;Dispositivo Virtual 4&lt;/font&gt;&lt;/div&gt;" style="rhombus;whiteSpace=wrap;html=1;shadow=0;" parent="1" vertex="1">
          <mxGeometry x="536.5" y="610" width="87.5" height="72.22" as="geometry" />
        </mxCell>
        <mxCell id="NnatkJBT9xsz4FV3scjZ-14" value="Iperf3" style="rhombus;whiteSpace=wrap;html=1;shadow=0;strokeColor=#FF0000;fontColor=#FF0000;" parent="1" vertex="1">
          <mxGeometry x="465.25" y="502" width="73.75" height="60" as="geometry" />
        </mxCell>
        <mxCell id="NnatkJBT9xsz4FV3scjZ-17" value="Telegraf" style="ellipse;whiteSpace=wrap;html=1;aspect=fixed;shadow=0;fontSize=10;" parent="1" vertex="1">
          <mxGeometry x="489.99" y="738.75" width="40" height="40" as="geometry" />
        </mxCell>
        <mxCell id="NnatkJBT9xsz4FV3scjZ-18" value="Telegraf" style="ellipse;whiteSpace=wrap;html=1;aspect=fixed;shadow=0;fontSize=10;" parent="1" vertex="1">
          <mxGeometry x="350" y="672.22" width="40" height="40" as="geometry" />
        </mxCell>
        <mxCell id="NnatkJBT9xsz4FV3scjZ-19" value="Telegraf" style="ellipse;whiteSpace=wrap;html=1;aspect=fixed;shadow=0;fontSize=10;" parent="1" vertex="1">
          <mxGeometry x="613.75" y="678.33" width="40" height="40" as="geometry" />
        </mxCell>
        <mxCell id="NnatkJBT9xsz4FV3scjZ-20" value="Telegraf" style="ellipse;whiteSpace=wrap;html=1;aspect=fixed;shadow=0;fontSize=10;" parent="1" vertex="1">
          <mxGeometry x="418.75" y="698.75" width="40" height="40" as="geometry" />
        </mxCell>
        <mxCell id="NnatkJBT9xsz4FV3scjZ-21" value="Telegraf" style="ellipse;whiteSpace=wrap;html=1;aspect=fixed;shadow=0;fontSize=10;" parent="1" vertex="1">
          <mxGeometry x="560.25" y="718.33" width="40" height="40" as="geometry" />
        </mxCell>
        <mxCell id="NnatkJBT9xsz4FV3scjZ-31" style="edgeStyle=orthogonalEdgeStyle;rounded=0;orthogonalLoop=1;jettySize=auto;html=1;exitX=0.5;exitY=1;exitDx=0;exitDy=0;entryX=0.19;entryY=0.809;entryDx=0;entryDy=0;entryPerimeter=0;" parent="1" source="NnatkJBT9xsz4FV3scjZ-18" target="3SZMAM52sG9_Gdmyh299-133" edge="1">
          <mxGeometry relative="1" as="geometry" />
        </mxCell>
        <mxCell id="NnatkJBT9xsz4FV3scjZ-33" style="edgeStyle=orthogonalEdgeStyle;rounded=0;orthogonalLoop=1;jettySize=auto;html=1;exitX=0.5;exitY=1;exitDx=0;exitDy=0;entryX=0.352;entryY=0.86;entryDx=0;entryDy=0;entryPerimeter=0;" parent="1" source="NnatkJBT9xsz4FV3scjZ-20" target="3SZMAM52sG9_Gdmyh299-133" edge="1">
          <mxGeometry relative="1" as="geometry" />
        </mxCell>
        <mxCell id="NnatkJBT9xsz4FV3scjZ-35" style="edgeStyle=orthogonalEdgeStyle;rounded=0;orthogonalLoop=1;jettySize=auto;html=1;exitX=0.5;exitY=1;exitDx=0;exitDy=0;entryX=0.68;entryY=0.918;entryDx=0;entryDy=0;entryPerimeter=0;" parent="1" source="NnatkJBT9xsz4FV3scjZ-21" target="3SZMAM52sG9_Gdmyh299-133" edge="1">
          <mxGeometry relative="1" as="geometry" />
        </mxCell>
        <mxCell id="NnatkJBT9xsz4FV3scjZ-37" style="edgeStyle=orthogonalEdgeStyle;rounded=0;orthogonalLoop=1;jettySize=auto;html=1;exitX=0.5;exitY=1;exitDx=0;exitDy=0;entryX=0.516;entryY=0.953;entryDx=0;entryDy=0;entryPerimeter=0;" parent="1" source="NnatkJBT9xsz4FV3scjZ-17" target="3SZMAM52sG9_Gdmyh299-133" edge="1">
          <mxGeometry relative="1" as="geometry" />
        </mxCell>
        <mxCell id="NnatkJBT9xsz4FV3scjZ-39" style="edgeStyle=orthogonalEdgeStyle;rounded=0;orthogonalLoop=1;jettySize=auto;html=1;exitX=0.5;exitY=1;exitDx=0;exitDy=0;entryX=0.8;entryY=0.8;entryDx=0;entryDy=0;entryPerimeter=0;" parent="1" source="NnatkJBT9xsz4FV3scjZ-19" target="3SZMAM52sG9_Gdmyh299-133" edge="1">
          <mxGeometry relative="1" as="geometry" />
        </mxCell>
        <mxCell id="NnatkJBT9xsz4FV3scjZ-46" value="SQLite" style="shape=cylinder;whiteSpace=wrap;html=1;boundedLbl=1;backgroundOutline=1;shadow=0;" parent="1" vertex="1">
          <mxGeometry x="478.63" y="918.75" width="49" height="55" as="geometry" />
        </mxCell>
        <mxCell id="NnatkJBT9xsz4FV3scjZ-66" style="rounded=0;orthogonalLoop=1;jettySize=auto;html=1;exitX=1;exitY=0;exitDx=0;exitDy=0;entryX=0;entryY=0.5;entryDx=0;entryDy=0;flowAnimation=0;curved=0;dashed=1;startArrow=classic;startFill=1;dashPattern=8 8;strokeColor=#FF0000;fontColor=#FF0000;" parent="1" source="NnatkJBT9xsz4FV3scjZ-49" target="NnatkJBT9xsz4FV3scjZ-14" edge="1">
          <mxGeometry relative="1" as="geometry" />
        </mxCell>
        <mxCell id="NnatkJBT9xsz4FV3scjZ-49" value="Iperf3" style="ellipse;whiteSpace=wrap;html=1;aspect=fixed;shadow=0;fontSize=10;strokeColor=#FF0000;fontColor=#FF0000;" parent="1" vertex="1">
          <mxGeometry x="400" y="554" width="30" height="30" as="geometry" />
        </mxCell>
        <mxCell id="NnatkJBT9xsz4FV3scjZ-67" style="rounded=0;orthogonalLoop=1;jettySize=auto;html=1;exitX=1;exitY=0;exitDx=0;exitDy=0;entryX=0;entryY=1;entryDx=0;entryDy=0;flowAnimation=0;curved=0;dashed=1;startArrow=classic;startFill=1;dashPattern=8 8;strokeColor=#FF0000;fontColor=#FF0000;" parent="1" source="NnatkJBT9xsz4FV3scjZ-50" target="NnatkJBT9xsz4FV3scjZ-14" edge="1">
          <mxGeometry relative="1" as="geometry" />
        </mxCell>
        <mxCell id="NnatkJBT9xsz4FV3scjZ-50" value="Iperf3" style="ellipse;whiteSpace=wrap;html=1;aspect=fixed;shadow=0;fontSize=10;strokeColor=#FF0000;fontColor=#FF0000;" parent="1" vertex="1">
          <mxGeometry x="443.12" y="572.89" width="30" height="30" as="geometry" />
        </mxCell>
        <mxCell id="NnatkJBT9xsz4FV3scjZ-68" style="rounded=0;orthogonalLoop=1;jettySize=auto;html=1;exitX=0.5;exitY=0;exitDx=0;exitDy=0;entryX=0.5;entryY=1;entryDx=0;entryDy=0;flowAnimation=0;curved=0;dashed=1;startArrow=classic;startFill=1;dashPattern=8 8;strokeColor=#FF0000;fontColor=#FF0000;" parent="1" source="NnatkJBT9xsz4FV3scjZ-51" target="NnatkJBT9xsz4FV3scjZ-14" edge="1">
          <mxGeometry relative="1" as="geometry" />
        </mxCell>
        <mxCell id="NnatkJBT9xsz4FV3scjZ-51" value="Iperf3" style="ellipse;whiteSpace=wrap;html=1;aspect=fixed;shadow=0;fontSize=10;strokeColor=#FF0000;fontColor=#FF0000;" parent="1" vertex="1">
          <mxGeometry x="494" y="587.89" width="30" height="30" as="geometry" />
        </mxCell>
        <mxCell id="NnatkJBT9xsz4FV3scjZ-69" style="rounded=0;orthogonalLoop=1;jettySize=auto;html=1;exitX=0;exitY=0;exitDx=0;exitDy=0;entryX=1;entryY=1;entryDx=0;entryDy=0;flowAnimation=0;curved=0;dashed=1;startArrow=classic;startFill=1;dashPattern=8 8;strokeColor=#FF0000;fontColor=#FF0000;" parent="1" source="NnatkJBT9xsz4FV3scjZ-52" target="NnatkJBT9xsz4FV3scjZ-14" edge="1">
          <mxGeometry relative="1" as="geometry" />
        </mxCell>
        <mxCell id="NnatkJBT9xsz4FV3scjZ-52" value="Iperf3" style="ellipse;whiteSpace=wrap;html=1;aspect=fixed;shadow=0;fontSize=10;strokeColor=#FF0000;fontColor=#FF0000;" parent="1" vertex="1">
          <mxGeometry x="543.13" y="579" width="30" height="30" as="geometry" />
        </mxCell>
        <mxCell id="NnatkJBT9xsz4FV3scjZ-70" style="rounded=0;orthogonalLoop=1;jettySize=auto;html=1;exitX=0;exitY=0;exitDx=0;exitDy=0;entryX=1;entryY=0.5;entryDx=0;entryDy=0;flowAnimation=0;curved=0;dashed=1;startArrow=classic;startFill=1;dashPattern=8 8;strokeColor=#FF0000;fontColor=#FF0000;" parent="1" source="NnatkJBT9xsz4FV3scjZ-53" target="NnatkJBT9xsz4FV3scjZ-14" edge="1">
          <mxGeometry relative="1" as="geometry" />
        </mxCell>
        <mxCell id="NnatkJBT9xsz4FV3scjZ-53" value="Iperf3" style="ellipse;whiteSpace=wrap;html=1;aspect=fixed;shadow=0;fontSize=10;strokeColor=#FF0000;fontColor=#FF0000;" parent="1" vertex="1">
          <mxGeometry x="573.13" y="542.89" width="30" height="30" as="geometry" />
        </mxCell>
        <mxCell id="Kzo5I-FJj0xecOTcukf--6" value="" style="shape=image;verticalLabelPosition=bottom;labelBackgroundColor=default;verticalAlign=top;aspect=fixed;imageAspect=0;image=data:image/png,iVBORw0KGgoAAAANSUhEUgAAAgAAAAIACAYAAAD0eNT6AAAACXBIWXMAAA7EAAAOxAGVKw4bAAAFyWlUWHRYTUw6Y29tLmFkb2JlLnhtcAAAAAAAPD94cGFja2V0IGJlZ2luPSLvu78iIGlkPSJXNU0wTXBDZWhpSHpyZVN6TlRjemtjOWQiPz4gPHg6eG1wbWV0YSB4bWxuczp4PSJhZG9iZTpuczptZXRhLyIgeDp4bXB0az0iQWRvYmUgWE1QIENvcmUgOS4xLWMwMDEgNzkuMTQ2Mjg5OSwgMjAyMy8wNi8yNS0yMDowMTo1NSAgICAgICAgIj4gPHJkZjpSREYgeG1sbnM6cmRmPSJodHRwOi8vd3d3LnczLm9yZy8xOTk5LzAyLzIyLXJkZi1zeW50YXgtbnMjIj4gPHJkZjpEZXNjcmlwdGlvbiByZGY6YWJvdXQ9IiIgeG1sbnM6eG1wPSJodHRwOi8vbnMuYWRvYmUuY29tL3hhcC8xLjAvIiB4bWxuczpkYz0iaHR0cDovL3B1cmwub3JnL2RjL2VsZW1lbnRzLzEuMS8iIHhtbG5zOnBob3Rvc2hvcD0iaHR0cDovL25zLmFkb2JlLmNvbS9waG90b3Nob3AvMS4wLyIgeG1sbnM6eG1wTU09Imh0dHA6Ly9ucy5hZG9iZS5jb20veGFwLzEuMC9tbS8iIHhtbG5zOnN0RXZ0PSJodHRwOi8vbnMuYWRvYmUuY29tL3hhcC8xLjAvc1R5cGUvUmVzb3VyY2VFdmVudCMiIHhtcDpDcmVhdG9yVG9vbD0iQWRvYmUgUGhvdG9zaG9wIDI1LjEgKFdpbmRvd3MpIiB4bXA6Q3JlYXRlRGF0ZT0iMjAyNS0wOC0xNFQyMToxODoyMi0wMzowMCIgeG1wOk1vZGlmeURhdGU9IjIwMjUtMDgtMTRUMjE6MjE6NTAtMDM6MDAiIHhtcDpNZXRhZGF0YURhdGU9IjIwMjUtMDgtMTRUMjE6MjE6NTAtMDM6MDAiIGRjOmZvcm1hdD0iaW1hZ2UvcG5nIiBwaG90b3Nob3A6Q29sb3JNb2RlPSIzIiB4bXBNTTpJbnN0YW5jZUlEPSJ4bXAuaWlkOjAyNGNhNTBjLTU1YjEtNzU0Mi04MTZmLTA2NTljMzU1MTg2NSIgeG1wTU06RG9jdW1lbnRJRD0iYWRvYmU6ZG9jaWQ6cGhvdG9zaG9wOjFiZmJjZWU5LWZjY2ItNzc0Ny1hNzkyLTE0ZmZkNDA3MmIzMSIgeG1wTU06T3JpZ2luYWxEb2N1bWVudElEPSJ4bXAuZGlkOjU0NTAxOTk1LWI0YTMtODA0MS04ODU2LTU0YTUxODFlMmRlZiI+IDx4bXBNTTpIaXN0b3J5PiA8cmRmOlNlcT4gPHJkZjpsaSBzdEV2dDphY3Rpb249ImNyZWF0ZWQiIHN0RXZ0Omluc3RhbmNlSUQ9InhtcC5paWQ6NTQ1MDE5OTUtYjRhMy04MDQxLTg4NTYtNTRhNTE4MWUyZGVmIiBzdEV2dDp3aGVuPSIyMDI1LTA4LTE0VDIxOjE4OjIyLTAzOjAwIiBzdEV2dDpzb2Z0d2FyZUFnZW50PSJBZG9iZSBQaG90b3Nob3AgMjUuMSAoV2luZG93cykiLz4gPHJkZjpsaSBzdEV2dDphY3Rpb249InNhdmVkIiBzdEV2dDppbnN0YW5jZUlEPSJ4bXAuaWlkOjAyNGNhNTBjLTU1YjEtNzU0Mi04MTZmLTA2NTljMzU1MTg2NSIgc3RFdnQ6d2hlbj0iMjAyNS0wOC0xNFQyMToyMTo1MC0wMzowMCIgc3RFdnQ6c29mdHdhcmVBZ2VudD0iQWRvYmUgUGhvdG9zaG9wIDI1LjEgKFdpbmRvd3MpIiBzdEV2dDpjaGFuZ2VkPSIvIi8+IDwvcmRmOlNlcT4gPC94bXBNTTpIaXN0b3J5PiA8L3JkZjpEZXNjcmlwdGlvbj4gPC9yZGY6UkRGPiA8L3g6eG1wbWV0YT4gPD94cGFja2V0IGVuZD0iciI/Pp7yGbQAABHdSURBVHic7d1bjG5nXcfx38BubXqEthRPqWjT0nhAvUBKrcSiiFivlKKmSg0eEhujlmhaEg2LcGGNF5oY4yEipR4SgUtETaMkHAJBy41UBNqgFnfTLW4sPVA1Ml6sadl7d/bMOzPrWaf/55NMmuzZfZ6nV/9v1+F9t7a3twMA1PKcqQ8AAIxPAABAQQIAAAoSAABQkAAAgIIEAAAUJAAAoCABAAAFCQAAKEgAAEBBAgAAChIAAFCQAACAggQAABQkAACgIAEAAAUJAAAoSAAAQEECAAAKEgAAUJAAAICCBAAAFCQAAKAgAQAABQkAAChIAABAQQIAAAoSAABQkAAAgIIEAAAUJAAAoCABAAAFCQAAKEgAAEBBAgAAChIAAFCQAACAggQAABQkAACgIAEAAAUJAAAoSAAAQEECAAAKEgAAUJAAAICCBAAAFCQAAKAgAQAABQkAAChIAABAQQIAAAoSAABQkAAAgIIEAAAUJAAAoCABAAAFCQAAKEgAAEBBAgAAChIAAFCQAACAggQAABQkAACgoGNNVt3aarLsIb0gyYuTXJvkmiSXJHl+kguTXLDzA0A9T+z8PJ7kv5I8muRTOz+fSHJispOdaXt78CXbBMC0vjHJK5PcmOQVSS6f9jgALNTJJB9I8nc7P/cnGX4ST2Rru0FVTHAF4FuT3JrkR5J89dibA1DCI0n+IsmfJPmHUXduMKuXHAAXJvmpJG9I8pIxNgSAHZ9I8o4kf5D+9kFbAiBJclGS25L8SpLLWm4EAPt4LMnbk9yV5OFmuxQPgPOS3JHkjUkubrEBABzSk0l+J8lb0z9YOKzCAfDKJL+b/kl+AJir40nelOSeQVctGACXJ/n9JD881IIAMIK/Tv+c2vFBVisWAN+R/mnLFw2xGACM7HPp31B775FXajCr5/hJgM9Jf/nkQzH8AViuy5O8J8mvZ4afuzO3KwDnpn+t4keHOwwATO7eJD+U/lMHD27ltwAuSPLuJN8/7GEAYBY+muSm9LcGDmbFAXBZkr9K8tLhDwMAs/FPSV6Vgz4cuNIAOD/9pZHrhz8IAMzO/em/q+bkxv/GCh8CPCf9ZX/DH4Aqvin9mwGTfhvtlAGwlf7jE18z4RkAYAovS/+q+3OnOsCUAXB7klsm3B8ApnRTkl+bavOpngF4aZIPpn/tDwCq+lL6t9/u3fNvreQhwOcl+ViSrx9+YwBYnBNJvi17fZvgSh4C/O0Y/gDwtCvSf5PgqMa+AnBDkvenfwAQAPiyH0zyl7v+ZuG3AI4luS/JS4bfEAAW78Ek35zkqWf9ZuG3AH4xhj8AnM1VSX55rM3GugJwfpLPpL/PAQDs7mT6b8J97LQ/XfAVgJ+J4Q8A+7k0yW1jbDTGFYBzkjyQ5MrhNwKA1TmR/m25J5/5k4VeAfixGP4AsKkrMsIn5Y4RAD85wh4AsCavb71B61sAV6Z/+G/qbx0EgCXZTnJ1+lcDF3kL4CdG2AMA1mYryY+33KD1cL658foAsFavbbl4y1sAl6V/ktEVAAA4uO0kX5XkkaXdAviexusDwJptJfnuVou3HNA3NlwbACpoNktbBsANDdcGgAq+s9XCrZ4BeG6Sx5OcN/ziAFDG/yQ5P9vb/zf0wq2uALwohj8AHNW5Sb6uxcKtAuDaRusCQDUvbrFoqwC4qtG6AFDN1S0WbRUAlzZaFwCquaTFoq0C4MJG6wJANRe1WLRVADQ5LAAUdHGLRY+1WDTLugJw59QHAGASd019gA01+Z/qVgFwTqN1W/iNqQ8AwCSWEgBNZqrP6geAggQAABQkAACgIAEAAAUJAAAoSAAAQEECAAAKEgAAUJAAAICCBAAAFCQAAKAgAQAABQkAAChIAABAQQIAAAoSAABQkAAAgIIEAAAUJAAAoCABAAAFCQAAKEgAAEBBAgAAChIAAFCQAACAggQAABQkAACgIAEAAAUJAAAoSAAAQEECAAAKEgAAUJAAAICCBAAAFCQAAKAgAQAABQkAAChIAABAQQIAAAoSAABQkAAAgIIEAAAUJAAAoCABAAAFCQAAKEgAAEBBAgAAChIAAFCQAACAggQAABQkAACgIAEAAAUJAAAoSAAAQEECAAAKEgAAUJAAAICCBAAAFCQAAKAgAQAABQkAAChIAABAQQIAluHiqQ8ArIsAgGV4dZK7pj4EsB4CAJbjjogAYCACAJZFBACDEACwPCIAODIBAMskAoAjEQCwXCIAODQBAMsmAoBDEQCwfCIAODABAOsgAoADEQCwHiIA2JgAgHURAcBGBACsjwgA9iUAYJ1EALAnAQDrJQKAsxIAsG4iANiVAID1EwHAswgAqEEEAKcRAFCHCACeIQCgFhEAJBEAUJEIAAQAFCUCoLhjjdZ9XaN1geHcsfPPOyc9BTAJVwCgNlcCoCgBAIgAKEgAAIkIgHIEAPA0EQCFCADgVCIAihAAwJlEABQgAIDdiABYOQEAnI0IgBUTAMBeRACslAAA9iMCYIUEALAJEQArIwCATYkAWBEBAByECICVEADAQYkAWAEBAByGCICFEwDAYYkAWDABAByFCICFEgDAUYkAWCABAAxBBMDCCABgKCIAFkQAAEMSAbAQAgAYmgiABRAAQAsiAGZOAACtiACYMQEAtCQCYKYEANCaCIAZEgDAGEQAzIwAAMYiAmBGBAAwJhEAMyEAgLGJAJgBAQBMQQTAxAQAMBURABMSAMCURABMRAAAUxMBMAEBAMyBCICRCQBgLkQAjEgAAHMiAmAkAgCYGxEAIxAAwByJAGhMAABzJQKgIQEAzJkIgEaONVr35Um+ttHaUNF1Ux9gQnckeSpJN/E5YFVaBcDtSW5utDZQz5uTnJfkzqkPAmvhFgCwFG4HwIAEALAkIgAGIgCApREBMAABACyRCIAjEgDAUokAOAIBACyZCIBDEgDA0okAOAQBAKyBCIADEgDAWogAOAABAKyJCIANCQBgbUQAbEAAAGskAmAfAgBYKxEAexAAwJqJADgLAQCsnQiAXQgAoAIRAGcQAEAVIgBOIQCASkQA7BAAQDUiACIAgJpEAOUJAKCqL059AJiSAAAq6pK8ZepDwJQEAFBNF8MfBABQShfDH5IIAKCOLoY/PEMAABV0MfzhNAIAWLsuhj88iwAA1qyL4Q+7EgDAWnUx/OGsBACwRl0Mf9iTAADWpovhD/sSAMCadDH8YSMCAFiLLoY/bEwAAGvQxfCHAxEAwNJ1MfzhwAQAsGRdDH84FAEALFUXwx8OTQAAS9TF8IcjEQDA0nQx/OHIBACwJF0MfxiEAACWoovhD4M51mjd30ryrkZrQ0XXJXnj1IeY0Fti+MOgWgXAhxutC9TTxfCHwbkFAMxZF8MfmhAAwFx1MfyhGQEAzFEXwx+aEgDA3HQx/KE5AQDMSRfDH0YhAIC56GL4w2gEADAHXQx/GJUAAKbWxfCH0QkAYEpdDH+YhAAAptLF8IfJCABgCl0Mf5iUAADG1sXwh8kJAGBMXQx/mAUBAIyli+EPsyEAgDF0MfxhVgQA0FoXwx9mRwAALXUx/GGWBADQShfDH2ZLAAAtdDH8YdYEADC0LoY/zJ4AAIbUxfCHRRAAwFC6GP6wGAIAGEIXwx8WRQAAR9XF8IfFEQDAUXQx/GGRBABwWF0Mf1gsAQAcRhfDHxZNAAAH1cXwh8UTAMBBdDH8YRUEALCpLoY/rIYAADbRxfCHVREAwH66GP6wOgIA2EsXwx9WSQAAZ9PF8IfVEgDAbroY/rBqAgA4UxfDH1ZPAACn6mL4QwkCAHhaF8MfyhAAQGL4QzkCAOhi+EM5AgBq62L4Q0mtAuCdSbYX8gNVdTH8oSxXAKCmLoY/lCYAoJ4uhj+UJwCgli6GPxABAJV0MfyBHQIAauhi+AOnEACwfl0Mf+AMAgDWrYvhD+xCAMB6dTH8gbMQALBOXQx/YA8CANani+EP7EMAwLp0MfyBDQgAWI8uhj+wIQEA69DF8AcOQADA8nUx/IEDEgCwbF0Mf+AQBAAsVxfDHzgkAQDL1MXwB45AAMDydDH8gSMSALAsXQx/YAACAJaji+EPDOTY1AcANvI3Sd419SGA9XAFAJbhC1MfAFgXAQAABQkAAChIAABAQQIAAAoSAABQkAAAgIIEAAAUJAAAoCABAAAFCQAAKEgAAEBBAgAAChIAAFCQAACAggQAABQkAACgIAEAAAUJAAAoSAAAQEECAAAKEgAAUJAAAICCBAAAFCQAAKAgAQAABQkAAChIAABAQQIAAAoSAABQkAAAgIIEAAAUJAAAoCABAAAFCQAAKEgAAEBBAgAAChIAAFCQAACAggQAABQkAACgIAEAAAUJAAAoSAAAQEECAAAKEgAAUJAAAICCBAAAFCQAAKAgAQAABQkAAChIAABAQQIAAAoSAABQkAAAgIIEAAAUJAAAoCABAAAFCQAAKEgAAEBBAgAAChIAAFCQAACAgo41Wne70botfO/UBwCAPTSZqa0C4MlG67Zw79QHAIA9PN5i0Va3AB5rtC4AVNNkpgoAAJi3L7RYtFUANDksABS0qCsAn220LgBU81CLRVsFwD83WhcAqmkyU7e2txu8XbC1dVGSR5NsDb84AJSxneTibG8P/iZAy4cAjzdaGwCqeCgLew0wSe5ruDYAVPCxVgu3DID3NVwbACr421YLtwyAZocGgCKazdJWDwEm/QOAx5N85fAbAMDqPZzka5Jsp8GsbnkFYDvJexuuDwBr9p40/HK91l8HfE/j9QFgrd7RcvGWtwCS/jbAA0m+YfhNAGC1PpPkqjx9BWBhtwCS/uB/2ngPAFibu9Pw8n/S/gpA0j/A8GCSrxh+IwBYnafS/9//lz9Qb4FXAJLk39OXDACwv7dlhE/THeMKQJJcmeTTSc4dfjMAWI3/TXJ1kn897U8XegUgSf4tngUAgP28PWcO/0bGugKQJC9M/5WGzxt+QwBYvM8nuTbJiWf9ZsFXAJLkkSS/OuJ+ALAkb8puw7+RMa8AJH1wfCjJdcNvCgCL9ffpZ+OXdv3twq8AJP1/2M8m+eLI+wLAXD2Z5A052/BvZOwASJJ/TPILE+wLAHP080k+PvamY98CONXdSW4dfnMAWIw/T3LLvn+rwayeMgAuSPKBJN8+/AEAYPbuS/KK9LcA9raCZwBO9USSVyf55IRnAIApPJDkpmwy/BuZMgCS5D+SvCr9BwUBQAXH08++R6Y8xNQBkCQPJfmBJA9PfRAAaOzhJN+X5F8mPscsAiBJ7k9yfdwOAGC9Hkx/z//+qQ+SzCcAkr6Grk//QUEAsCYfTfLy9Pf+Z2FOAZAkJ9NfGrl74nMAwFD+OMmN6Z97m40pXwPcz2uT/FGSS4ZYDABG9liSn0vyZ0deaWWfA7CJa5Lck+RlQy0IACP4cPoPu/v0IKut7HMANvGp9PdMbs2I35AEAId0MskvJbkhQw3/RuZ+BeBUlyZ5a5KfTnJuiw0A4JD+O8kfJnlzks8PvnrBWwC7eWGS29N/ecIFLTcCgH08keRtSX4zyWeb7SIATnN5ktuSvD7JVWNsCAA7Hkj/jNrvJflc890EwO67pX9O4JYkNyd5wZibA1DGiSTvTP9U/0dG3VkA7L9zkm9J/77ljUm+K/2zAwBwUP+Z/ltr37fz8/EkDYbmBgTAoVyR5Nr0rxRek/5zBZ6f5ML0zxB4jgCgpid2fh5P/+Deo+nfPvvkzs983j5bTAAAALM2988BAAAaEAAAUJAAAICCBAAAFCQAAKAgAQAABQkAAChIAABAQQIAAAoSAABQkAAAgIIEAAAUJAAAoCABAAAFCQAAKEgAAEBBAgAAChIAAFCQAACAggQAABQkAACgIAEAAAUJAAAoSAAAQEECAAAKEgAAUJAAAICCBAAAFCQAAKAgAQAABQkAAChIAABAQQIAAAoSAABQkAAAgIIEAAAUJAAAoCABAAAFCQAAKEgAAEBBAgAAChIAAFCQAACAggQAABQkAACgIAEAAAUJAAAoSAAAQEECAAAKEgAAUJAAAICCBAAAFCQAAKAgAQAABQkAAChIAABAQQIAAAoSAABQkAAAgIIEAAAUJAAAoCABAAAFCQAAKOj/AbEIi6J8mRAIAAAAAElFTkSuQmCC;" vertex="1" parent="1">
          <mxGeometry x="363.75" y="581.89" width="12" height="12" as="geometry" />
        </mxCell>
        <mxCell id="Kzo5I-FJj0xecOTcukf--7" value="" style="shape=image;verticalLabelPosition=bottom;labelBackgroundColor=default;verticalAlign=top;aspect=fixed;imageAspect=0;image=data:image/png,iVBORw0KGgoAAAANSUhEUgAAAgAAAAIACAYAAAD0eNT6AAAACXBIWXMAAA7EAAAOxAGVKw4bAAAFyWlUWHRYTUw6Y29tLmFkb2JlLnhtcAAAAAAAPD94cGFja2V0IGJlZ2luPSLvu78iIGlkPSJXNU0wTXBDZWhpSHpyZVN6TlRjemtjOWQiPz4gPHg6eG1wbWV0YSB4bWxuczp4PSJhZG9iZTpuczptZXRhLyIgeDp4bXB0az0iQWRvYmUgWE1QIENvcmUgOS4xLWMwMDEgNzkuMTQ2Mjg5OSwgMjAyMy8wNi8yNS0yMDowMTo1NSAgICAgICAgIj4gPHJkZjpSREYgeG1sbnM6cmRmPSJodHRwOi8vd3d3LnczLm9yZy8xOTk5LzAyLzIyLXJkZi1zeW50YXgtbnMjIj4gPHJkZjpEZXNjcmlwdGlvbiByZGY6YWJvdXQ9IiIgeG1sbnM6eG1wPSJodHRwOi8vbnMuYWRvYmUuY29tL3hhcC8xLjAvIiB4bWxuczpkYz0iaHR0cDovL3B1cmwub3JnL2RjL2VsZW1lbnRzLzEuMS8iIHhtbG5zOnBob3Rvc2hvcD0iaHR0cDovL25zLmFkb2JlLmNvbS9waG90b3Nob3AvMS4wLyIgeG1sbnM6eG1wTU09Imh0dHA6Ly9ucy5hZG9iZS5jb20veGFwLzEuMC9tbS8iIHhtbG5zOnN0RXZ0PSJodHRwOi8vbnMuYWRvYmUuY29tL3hhcC8xLjAvc1R5cGUvUmVzb3VyY2VFdmVudCMiIHhtcDpDcmVhdG9yVG9vbD0iQWRvYmUgUGhvdG9zaG9wIDI1LjEgKFdpbmRvd3MpIiB4bXA6Q3JlYXRlRGF0ZT0iMjAyNS0wOC0xNFQyMToxODoyMi0wMzowMCIgeG1wOk1vZGlmeURhdGU9IjIwMjUtMDgtMTRUMjE6MjE6NTAtMDM6MDAiIHhtcDpNZXRhZGF0YURhdGU9IjIwMjUtMDgtMTRUMjE6MjE6NTAtMDM6MDAiIGRjOmZvcm1hdD0iaW1hZ2UvcG5nIiBwaG90b3Nob3A6Q29sb3JNb2RlPSIzIiB4bXBNTTpJbnN0YW5jZUlEPSJ4bXAuaWlkOjAyNGNhNTBjLTU1YjEtNzU0Mi04MTZmLTA2NTljMzU1MTg2NSIgeG1wTU06RG9jdW1lbnRJRD0iYWRvYmU6ZG9jaWQ6cGhvdG9zaG9wOjFiZmJjZWU5LWZjY2ItNzc0Ny1hNzkyLTE0ZmZkNDA3MmIzMSIgeG1wTU06T3JpZ2luYWxEb2N1bWVudElEPSJ4bXAuZGlkOjU0NTAxOTk1LWI0YTMtODA0MS04ODU2LTU0YTUxODFlMmRlZiI+IDx4bXBNTTpIaXN0b3J5PiA8cmRmOlNlcT4gPHJkZjpsaSBzdEV2dDphY3Rpb249ImNyZWF0ZWQiIHN0RXZ0Omluc3RhbmNlSUQ9InhtcC5paWQ6NTQ1MDE5OTUtYjRhMy04MDQxLTg4NTYtNTRhNTE4MWUyZGVmIiBzdEV2dDp3aGVuPSIyMDI1LTA4LTE0VDIxOjE4OjIyLTAzOjAwIiBzdEV2dDpzb2Z0d2FyZUFnZW50PSJBZG9iZSBQaG90b3Nob3AgMjUuMSAoV2luZG93cykiLz4gPHJkZjpsaSBzdEV2dDphY3Rpb249InNhdmVkIiBzdEV2dDppbnN0YW5jZUlEPSJ4bXAuaWlkOjAyNGNhNTBjLTU1YjEtNzU0Mi04MTZmLTA2NTljMzU1MTg2NSIgc3RFdnQ6d2hlbj0iMjAyNS0wOC0xNFQyMToyMTo1MC0wMzowMCIgc3RFdnQ6c29mdHdhcmVBZ2VudD0iQWRvYmUgUGhvdG9zaG9wIDI1LjEgKFdpbmRvd3MpIiBzdEV2dDpjaGFuZ2VkPSIvIi8+IDwvcmRmOlNlcT4gPC94bXBNTTpIaXN0b3J5PiA8L3JkZjpEZXNjcmlwdGlvbj4gPC9yZGY6UkRGPiA8L3g6eG1wbWV0YT4gPD94cGFja2V0IGVuZD0iciI/Pp7yGbQAABHdSURBVHic7d1bjG5nXcfx38BubXqEthRPqWjT0nhAvUBKrcSiiFivlKKmSg0eEhujlmhaEg2LcGGNF5oY4yEipR4SgUtETaMkHAJBy41UBNqgFnfTLW4sPVA1Ml6sadl7d/bMOzPrWaf/55NMmuzZfZ6nV/9v1+F9t7a3twMA1PKcqQ8AAIxPAABAQQIAAAoSAABQkAAAgIIEAAAUJAAAoCABAAAFCQAAKEgAAEBBAgAAChIAAFCQAACAggQAABQkAACgIAEAAAUJAAAoSAAAQEECAAAKEgAAUJAAAICCBAAAFCQAAKAgAQAABQkAAChIAABAQQIAAAoSAABQkAAAgIIEAAAUJAAAoCABAAAFCQAAKEgAAEBBAgAAChIAAFCQAACAggQAABQkAACgIAEAAAUJAAAoSAAAQEECAAAKEgAAUJAAAICCBAAAFCQAAKAgAQAABQkAAChIAABAQQIAAAoSAABQkAAAgIIEAAAUJAAAoCABAAAFCQAAKEgAAEBBAgAAChIAAFCQAACAggQAABQkAACgoGNNVt3aarLsIb0gyYuTXJvkmiSXJHl+kguTXLDzA0A9T+z8PJ7kv5I8muRTOz+fSHJispOdaXt78CXbBMC0vjHJK5PcmOQVSS6f9jgALNTJJB9I8nc7P/cnGX4ST2Rru0FVTHAF4FuT3JrkR5J89dibA1DCI0n+IsmfJPmHUXduMKuXHAAXJvmpJG9I8pIxNgSAHZ9I8o4kf5D+9kFbAiBJclGS25L8SpLLWm4EAPt4LMnbk9yV5OFmuxQPgPOS3JHkjUkubrEBABzSk0l+J8lb0z9YOKzCAfDKJL+b/kl+AJir40nelOSeQVctGACXJ/n9JD881IIAMIK/Tv+c2vFBVisWAN+R/mnLFw2xGACM7HPp31B775FXajCr5/hJgM9Jf/nkQzH8AViuy5O8J8mvZ4afuzO3KwDnpn+t4keHOwwATO7eJD+U/lMHD27ltwAuSPLuJN8/7GEAYBY+muSm9LcGDmbFAXBZkr9K8tLhDwMAs/FPSV6Vgz4cuNIAOD/9pZHrhz8IAMzO/em/q+bkxv/GCh8CPCf9ZX/DH4Aqvin9mwGTfhvtlAGwlf7jE18z4RkAYAovS/+q+3OnOsCUAXB7klsm3B8ApnRTkl+bavOpngF4aZIPpn/tDwCq+lL6t9/u3fNvreQhwOcl+ViSrx9+YwBYnBNJvi17fZvgSh4C/O0Y/gDwtCvSf5PgqMa+AnBDkvenfwAQAPiyH0zyl7v+ZuG3AI4luS/JS4bfEAAW78Ek35zkqWf9ZuG3AH4xhj8AnM1VSX55rM3GugJwfpLPpL/PAQDs7mT6b8J97LQ/XfAVgJ+J4Q8A+7k0yW1jbDTGFYBzkjyQ5MrhNwKA1TmR/m25J5/5k4VeAfixGP4AsKkrMsIn5Y4RAD85wh4AsCavb71B61sAV6Z/+G/qbx0EgCXZTnJ1+lcDF3kL4CdG2AMA1mYryY+33KD1cL658foAsFavbbl4y1sAl6V/ktEVAAA4uO0kX5XkkaXdAviexusDwJptJfnuVou3HNA3NlwbACpoNktbBsANDdcGgAq+s9XCrZ4BeG6Sx5OcN/ziAFDG/yQ5P9vb/zf0wq2uALwohj8AHNW5Sb6uxcKtAuDaRusCQDUvbrFoqwC4qtG6AFDN1S0WbRUAlzZaFwCquaTFoq0C4MJG6wJANRe1WLRVADQ5LAAUdHGLRY+1WDTLugJw59QHAGASd019gA01+Z/qVgFwTqN1W/iNqQ8AwCSWEgBNZqrP6geAggQAABQkAACgIAEAAAUJAAAoSAAAQEECAAAKEgAAUJAAAICCBAAAFCQAAKAgAQAABQkAAChIAABAQQIAAAoSAABQkAAAgIIEAAAUJAAAoCABAAAFCQAAKEgAAEBBAgAAChIAAFCQAACAggQAABQkAACgIAEAAAUJAAAoSAAAQEECAAAKEgAAUJAAAICCBAAAFCQAAKAgAQAABQkAAChIAABAQQIAAAoSAABQkAAAgIIEAAAUJAAAoCABAAAFCQAAKEgAAEBBAgAAChIAAFCQAACAggQAABQkAACgIAEAAAUJAAAoSAAAQEECAAAKEgAAUJAAAICCBAAAFCQAAKAgAQAABQkAAChIAABAQQIAluHiqQ8ArIsAgGV4dZK7pj4EsB4CAJbjjogAYCACAJZFBACDEACwPCIAODIBAMskAoAjEQCwXCIAODQBAMsmAoBDEQCwfCIAODABAOsgAoADEQCwHiIA2JgAgHURAcBGBACsjwgA9iUAYJ1EALAnAQDrJQKAsxIAsG4iANiVAID1EwHAswgAqEEEAKcRAFCHCACeIQCgFhEAJBEAUJEIAAQAFCUCoLhjjdZ9XaN1geHcsfPPOyc9BTAJVwCgNlcCoCgBAIgAKEgAAIkIgHIEAPA0EQCFCADgVCIAihAAwJlEABQgAIDdiABYOQEAnI0IgBUTAMBeRACslAAA9iMCYIUEALAJEQArIwCATYkAWBEBAByECICVEADAQYkAWAEBAByGCICFEwDAYYkAWDABAByFCICFEgDAUYkAWCABAAxBBMDCCABgKCIAFkQAAEMSAbAQAgAYmgiABRAAQAsiAGZOAACtiACYMQEAtCQCYKYEANCaCIAZEgDAGEQAzIwAAMYiAmBGBAAwJhEAMyEAgLGJAJgBAQBMQQTAxAQAMBURABMSAMCURABMRAAAUxMBMAEBAMyBCICRCQBgLkQAjEgAAHMiAmAkAgCYGxEAIxAAwByJAGhMAABzJQKgIQEAzJkIgEaONVr35Um+ttHaUNF1Ux9gQnckeSpJN/E5YFVaBcDtSW5utDZQz5uTnJfkzqkPAmvhFgCwFG4HwIAEALAkIgAGIgCApREBMAABACyRCIAjEgDAUokAOAIBACyZCIBDEgDA0okAOAQBAKyBCIADEgDAWogAOAABAKyJCIANCQBgbUQAbEAAAGskAmAfAgBYKxEAexAAwJqJADgLAQCsnQiAXQgAoAIRAGcQAEAVIgBOIQCASkQA7BAAQDUiACIAgJpEAOUJAKCqL059AJiSAAAq6pK8ZepDwJQEAFBNF8MfBABQShfDH5IIAKCOLoY/PEMAABV0MfzhNAIAWLsuhj88iwAA1qyL4Q+7EgDAWnUx/OGsBACwRl0Mf9iTAADWpovhD/sSAMCadDH8YSMCAFiLLoY/bEwAAGvQxfCHAxEAwNJ1MfzhwAQAsGRdDH84FAEALFUXwx8OTQAAS9TF8IcjEQDA0nQx/OHIBACwJF0MfxiEAACWoovhD4M51mjd30ryrkZrQ0XXJXnj1IeY0Fti+MOgWgXAhxutC9TTxfCHwbkFAMxZF8MfmhAAwFx1MfyhGQEAzFEXwx+aEgDA3HQx/KE5AQDMSRfDH0YhAIC56GL4w2gEADAHXQx/GJUAAKbWxfCH0QkAYEpdDH+YhAAAptLF8IfJCABgCl0Mf5iUAADG1sXwh8kJAGBMXQx/mAUBAIyli+EPsyEAgDF0MfxhVgQA0FoXwx9mRwAALXUx/GGWBADQShfDH2ZLAAAtdDH8YdYEADC0LoY/zJ4AAIbUxfCHRRAAwFC6GP6wGAIAGEIXwx8WRQAAR9XF8IfFEQDAUXQx/GGRBABwWF0Mf1gsAQAcRhfDHxZNAAAH1cXwh8UTAMBBdDH8YRUEALCpLoY/rIYAADbRxfCHVREAwH66GP6wOgIA2EsXwx9WSQAAZ9PF8IfVEgDAbroY/rBqAgA4UxfDH1ZPAACn6mL4QwkCAHhaF8MfyhAAQGL4QzkCAOhi+EM5AgBq62L4Q0mtAuCdSbYX8gNVdTH8oSxXAKCmLoY/lCYAoJ4uhj+UJwCgli6GPxABAJV0MfyBHQIAauhi+AOnEACwfl0Mf+AMAgDWrYvhD+xCAMB6dTH8gbMQALBOXQx/YA8CANani+EP7EMAwLp0MfyBDQgAWI8uhj+wIQEA69DF8AcOQADA8nUx/IEDEgCwbF0Mf+AQBAAsVxfDHzgkAQDL1MXwB45AAMDydDH8gSMSALAsXQx/YAACAJaji+EPDOTY1AcANvI3Sd419SGA9XAFAJbhC1MfAFgXAQAABQkAAChIAABAQQIAAAoSAABQkAAAgIIEAAAUJAAAoCABAAAFCQAAKEgAAEBBAgAAChIAAFCQAACAggQAABQkAACgIAEAAAUJAAAoSAAAQEECAAAKEgAAUJAAAICCBAAAFCQAAKAgAQAABQkAAChIAABAQQIAAAoSAABQkAAAgIIEAAAUJAAAoCABAAAFCQAAKEgAAEBBAgAAChIAAFCQAACAggQAABQkAACgIAEAAAUJAAAoSAAAQEECAAAKEgAAUJAAAICCBAAAFCQAAKAgAQAABQkAAChIAABAQQIAAAoSAABQkAAAgIIEAAAUJAAAoCABAAAFCQAAKEgAAEBBAgAAChIAAFCQAACAgo41Wne70botfO/UBwCAPTSZqa0C4MlG67Zw79QHAIA9PN5i0Va3AB5rtC4AVNNkpgoAAJi3L7RYtFUANDksABS0qCsAn220LgBU81CLRVsFwD83WhcAqmkyU7e2txu8XbC1dVGSR5NsDb84AJSxneTibG8P/iZAy4cAjzdaGwCqeCgLew0wSe5ruDYAVPCxVgu3DID3NVwbACr421YLtwyAZocGgCKazdJWDwEm/QOAx5N85fAbAMDqPZzka5Jsp8GsbnkFYDvJexuuDwBr9p40/HK91l8HfE/j9QFgrd7RcvGWtwCS/jbAA0m+YfhNAGC1PpPkqjx9BWBhtwCS/uB/2ngPAFibu9Pw8n/S/gpA0j/A8GCSrxh+IwBYnafS/9//lz9Qb4FXAJLk39OXDACwv7dlhE/THeMKQJJcmeTTSc4dfjMAWI3/TXJ1kn897U8XegUgSf4tngUAgP28PWcO/0bGugKQJC9M/5WGzxt+QwBYvM8nuTbJiWf9ZsFXAJLkkSS/OuJ+ALAkb8puw7+RMa8AJH1wfCjJdcNvCgCL9ffpZ+OXdv3twq8AJP1/2M8m+eLI+wLAXD2Z5A052/BvZOwASJJ/TPILE+wLAHP080k+PvamY98CONXdSW4dfnMAWIw/T3LLvn+rwayeMgAuSPKBJN8+/AEAYPbuS/KK9LcA9raCZwBO9USSVyf55IRnAIApPJDkpmwy/BuZMgCS5D+SvCr9BwUBQAXH08++R6Y8xNQBkCQPJfmBJA9PfRAAaOzhJN+X5F8mPscsAiBJ7k9yfdwOAGC9Hkx/z//+qQ+SzCcAkr6Grk//QUEAsCYfTfLy9Pf+Z2FOAZAkJ9NfGrl74nMAwFD+OMmN6Z97m40pXwPcz2uT/FGSS4ZYDABG9liSn0vyZ0deaWWfA7CJa5Lck+RlQy0IACP4cPoPu/v0IKut7HMANvGp9PdMbs2I35AEAId0MskvJbkhQw3/RuZ+BeBUlyZ5a5KfTnJuiw0A4JD+O8kfJnlzks8PvnrBWwC7eWGS29N/ecIFLTcCgH08keRtSX4zyWeb7SIATnN5ktuSvD7JVWNsCAA7Hkj/jNrvJflc890EwO67pX9O4JYkNyd5wZibA1DGiSTvTP9U/0dG3VkA7L9zkm9J/77ljUm+K/2zAwBwUP+Z/ltr37fz8/EkDYbmBgTAoVyR5Nr0rxRek/5zBZ6f5ML0zxB4jgCgpid2fh5P/+Deo+nfPvvkzs983j5bTAAAALM2988BAAAaEAAAUJAAAICCBAAAFCQAAKAgAQAABQkAAChIAABAQQIAAAoSAABQkAAAgIIEAAAUJAAAoCABAAAFCQAAKEgAAEBBAgAAChIAAFCQAACAggQAABQkAACgIAEAAAUJAAAoSAAAQEECAAAKEgAAUJAAAICCBAAAFCQAAKAgAQAABQkAAChIAABAQQIAAAoSAABQkAAAgIIEAAAUJAAAoCABAAAFCQAAKEgAAEBBAgAAChIAAFCQAACAggQAABQkAACgIAEAAAUJAAAoSAAAQEECAAAKEgAAUJAAAICCBAAAFCQAAKAgAQAABQkAAChIAABAQQIAAAoSAABQkAAAgIIEAAAUJAAAoCABAAAFCQAAKOj/AbEIi6J8mRAIAAAAAElFTkSuQmCC;" vertex="1" parent="1">
          <mxGeometry x="432.75" y="617.89" width="12" height="12" as="geometry" />
        </mxCell>
        <mxCell id="Kzo5I-FJj0xecOTcukf--8" value="" style="shape=image;verticalLabelPosition=bottom;labelBackgroundColor=default;verticalAlign=top;aspect=fixed;imageAspect=0;image=data:image/png,iVBORw0KGgoAAAANSUhEUgAAAgAAAAIACAYAAAD0eNT6AAAACXBIWXMAAA7EAAAOxAGVKw4bAAAFyWlUWHRYTUw6Y29tLmFkb2JlLnhtcAAAAAAAPD94cGFja2V0IGJlZ2luPSLvu78iIGlkPSJXNU0wTXBDZWhpSHpyZVN6TlRjemtjOWQiPz4gPHg6eG1wbWV0YSB4bWxuczp4PSJhZG9iZTpuczptZXRhLyIgeDp4bXB0az0iQWRvYmUgWE1QIENvcmUgOS4xLWMwMDEgNzkuMTQ2Mjg5OSwgMjAyMy8wNi8yNS0yMDowMTo1NSAgICAgICAgIj4gPHJkZjpSREYgeG1sbnM6cmRmPSJodHRwOi8vd3d3LnczLm9yZy8xOTk5LzAyLzIyLXJkZi1zeW50YXgtbnMjIj4gPHJkZjpEZXNjcmlwdGlvbiByZGY6YWJvdXQ9IiIgeG1sbnM6eG1wPSJodHRwOi8vbnMuYWRvYmUuY29tL3hhcC8xLjAvIiB4bWxuczpkYz0iaHR0cDovL3B1cmwub3JnL2RjL2VsZW1lbnRzLzEuMS8iIHhtbG5zOnBob3Rvc2hvcD0iaHR0cDovL25zLmFkb2JlLmNvbS9waG90b3Nob3AvMS4wLyIgeG1sbnM6eG1wTU09Imh0dHA6Ly9ucy5hZG9iZS5jb20veGFwLzEuMC9tbS8iIHhtbG5zOnN0RXZ0PSJodHRwOi8vbnMuYWRvYmUuY29tL3hhcC8xLjAvc1R5cGUvUmVzb3VyY2VFdmVudCMiIHhtcDpDcmVhdG9yVG9vbD0iQWRvYmUgUGhvdG9zaG9wIDI1LjEgKFdpbmRvd3MpIiB4bXA6Q3JlYXRlRGF0ZT0iMjAyNS0wOC0xNFQyMToxODoyMi0wMzowMCIgeG1wOk1vZGlmeURhdGU9IjIwMjUtMDgtMTRUMjE6MjE6NTAtMDM6MDAiIHhtcDpNZXRhZGF0YURhdGU9IjIwMjUtMDgtMTRUMjE6MjE6NTAtMDM6MDAiIGRjOmZvcm1hdD0iaW1hZ2UvcG5nIiBwaG90b3Nob3A6Q29sb3JNb2RlPSIzIiB4bXBNTTpJbnN0YW5jZUlEPSJ4bXAuaWlkOjAyNGNhNTBjLTU1YjEtNzU0Mi04MTZmLTA2NTljMzU1MTg2NSIgeG1wTU06RG9jdW1lbnRJRD0iYWRvYmU6ZG9jaWQ6cGhvdG9zaG9wOjFiZmJjZWU5LWZjY2ItNzc0Ny1hNzkyLTE0ZmZkNDA3MmIzMSIgeG1wTU06T3JpZ2luYWxEb2N1bWVudElEPSJ4bXAuZGlkOjU0NTAxOTk1LWI0YTMtODA0MS04ODU2LTU0YTUxODFlMmRlZiI+IDx4bXBNTTpIaXN0b3J5PiA8cmRmOlNlcT4gPHJkZjpsaSBzdEV2dDphY3Rpb249ImNyZWF0ZWQiIHN0RXZ0Omluc3RhbmNlSUQ9InhtcC5paWQ6NTQ1MDE5OTUtYjRhMy04MDQxLTg4NTYtNTRhNTE4MWUyZGVmIiBzdEV2dDp3aGVuPSIyMDI1LTA4LTE0VDIxOjE4OjIyLTAzOjAwIiBzdEV2dDpzb2Z0d2FyZUFnZW50PSJBZG9iZSBQaG90b3Nob3AgMjUuMSAoV2luZG93cykiLz4gPHJkZjpsaSBzdEV2dDphY3Rpb249InNhdmVkIiBzdEV2dDppbnN0YW5jZUlEPSJ4bXAuaWlkOjAyNGNhNTBjLTU1YjEtNzU0Mi04MTZmLTA2NTljMzU1MTg2NSIgc3RFdnQ6d2hlbj0iMjAyNS0wOC0xNFQyMToyMTo1MC0wMzowMCIgc3RFdnQ6c29mdHdhcmVBZ2VudD0iQWRvYmUgUGhvdG9zaG9wIDI1LjEgKFdpbmRvd3MpIiBzdEV2dDpjaGFuZ2VkPSIvIi8+IDwvcmRmOlNlcT4gPC94bXBNTTpIaXN0b3J5PiA8L3JkZjpEZXNjcmlwdGlvbj4gPC9yZGY6UkRGPiA8L3g6eG1wbWV0YT4gPD94cGFja2V0IGVuZD0iciI/Pp7yGbQAABHdSURBVHic7d1bjG5nXcfx38BubXqEthRPqWjT0nhAvUBKrcSiiFivlKKmSg0eEhujlmhaEg2LcGGNF5oY4yEipR4SgUtETaMkHAJBy41UBNqgFnfTLW4sPVA1Ml6sadl7d/bMOzPrWaf/55NMmuzZfZ6nV/9v1+F9t7a3twMA1PKcqQ8AAIxPAABAQQIAAAoSAABQkAAAgIIEAAAUJAAAoCABAAAFCQAAKEgAAEBBAgAAChIAAFCQAACAggQAABQkAACgIAEAAAUJAAAoSAAAQEECAAAKEgAAUJAAAICCBAAAFCQAAKAgAQAABQkAAChIAABAQQIAAAoSAABQkAAAgIIEAAAUJAAAoCABAAAFCQAAKEgAAEBBAgAAChIAAFCQAACAggQAABQkAACgIAEAAAUJAAAoSAAAQEECAAAKEgAAUJAAAICCBAAAFCQAAKAgAQAABQkAAChIAABAQQIAAAoSAABQkAAAgIIEAAAUJAAAoCABAAAFCQAAKEgAAEBBAgAAChIAAFCQAACAggQAABQkAACgoGNNVt3aarLsIb0gyYuTXJvkmiSXJHl+kguTXLDzA0A9T+z8PJ7kv5I8muRTOz+fSHJispOdaXt78CXbBMC0vjHJK5PcmOQVSS6f9jgALNTJJB9I8nc7P/cnGX4ST2Rru0FVTHAF4FuT3JrkR5J89dibA1DCI0n+IsmfJPmHUXduMKuXHAAXJvmpJG9I8pIxNgSAHZ9I8o4kf5D+9kFbAiBJclGS25L8SpLLWm4EAPt4LMnbk9yV5OFmuxQPgPOS3JHkjUkubrEBABzSk0l+J8lb0z9YOKzCAfDKJL+b/kl+AJir40nelOSeQVctGACXJ/n9JD881IIAMIK/Tv+c2vFBVisWAN+R/mnLFw2xGACM7HPp31B775FXajCr5/hJgM9Jf/nkQzH8AViuy5O8J8mvZ4afuzO3KwDnpn+t4keHOwwATO7eJD+U/lMHD27ltwAuSPLuJN8/7GEAYBY+muSm9LcGDmbFAXBZkr9K8tLhDwMAs/FPSV6Vgz4cuNIAOD/9pZHrhz8IAMzO/em/q+bkxv/GCh8CPCf9ZX/DH4Aqvin9mwGTfhvtlAGwlf7jE18z4RkAYAovS/+q+3OnOsCUAXB7klsm3B8ApnRTkl+bavOpngF4aZIPpn/tDwCq+lL6t9/u3fNvreQhwOcl+ViSrx9+YwBYnBNJvi17fZvgSh4C/O0Y/gDwtCvSf5PgqMa+AnBDkvenfwAQAPiyH0zyl7v+ZuG3AI4luS/JS4bfEAAW78Ek35zkqWf9ZuG3AH4xhj8AnM1VSX55rM3GugJwfpLPpL/PAQDs7mT6b8J97LQ/XfAVgJ+J4Q8A+7k0yW1jbDTGFYBzkjyQ5MrhNwKA1TmR/m25J5/5k4VeAfixGP4AsKkrMsIn5Y4RAD85wh4AsCavb71B61sAV6Z/+G/qbx0EgCXZTnJ1+lcDF3kL4CdG2AMA1mYryY+33KD1cL658foAsFavbbl4y1sAl6V/ktEVAAA4uO0kX5XkkaXdAviexusDwJptJfnuVou3HNA3NlwbACpoNktbBsANDdcGgAq+s9XCrZ4BeG6Sx5OcN/ziAFDG/yQ5P9vb/zf0wq2uALwohj8AHNW5Sb6uxcKtAuDaRusCQDUvbrFoqwC4qtG6AFDN1S0WbRUAlzZaFwCquaTFoq0C4MJG6wJANRe1WLRVADQ5LAAUdHGLRY+1WDTLugJw59QHAGASd019gA01+Z/qVgFwTqN1W/iNqQ8AwCSWEgBNZqrP6geAggQAABQkAACgIAEAAAUJAAAoSAAAQEECAAAKEgAAUJAAAICCBAAAFCQAAKAgAQAABQkAAChIAABAQQIAAAoSAABQkAAAgIIEAAAUJAAAoCABAAAFCQAAKEgAAEBBAgAAChIAAFCQAACAggQAABQkAACgIAEAAAUJAAAoSAAAQEECAAAKEgAAUJAAAICCBAAAFCQAAKAgAQAABQkAAChIAABAQQIAAAoSAABQkAAAgIIEAAAUJAAAoCABAAAFCQAAKEgAAEBBAgAAChIAAFCQAACAggQAABQkAACgIAEAAAUJAAAoSAAAQEECAAAKEgAAUJAAAICCBAAAFCQAAKAgAQAABQkAAChIAABAQQIAluHiqQ8ArIsAgGV4dZK7pj4EsB4CAJbjjogAYCACAJZFBACDEACwPCIAODIBAMskAoAjEQCwXCIAODQBAMsmAoBDEQCwfCIAODABAOsgAoADEQCwHiIA2JgAgHURAcBGBACsjwgA9iUAYJ1EALAnAQDrJQKAsxIAsG4iANiVAID1EwHAswgAqEEEAKcRAFCHCACeIQCgFhEAJBEAUJEIAAQAFCUCoLhjjdZ9XaN1geHcsfPPOyc9BTAJVwCgNlcCoCgBAIgAKEgAAIkIgHIEAPA0EQCFCADgVCIAihAAwJlEABQgAIDdiABYOQEAnI0IgBUTAMBeRACslAAA9iMCYIUEALAJEQArIwCATYkAWBEBAByECICVEADAQYkAWAEBAByGCICFEwDAYYkAWDABAByFCICFEgDAUYkAWCABAAxBBMDCCABgKCIAFkQAAEMSAbAQAgAYmgiABRAAQAsiAGZOAACtiACYMQEAtCQCYKYEANCaCIAZEgDAGEQAzIwAAMYiAmBGBAAwJhEAMyEAgLGJAJgBAQBMQQTAxAQAMBURABMSAMCURABMRAAAUxMBMAEBAMyBCICRCQBgLkQAjEgAAHMiAmAkAgCYGxEAIxAAwByJAGhMAABzJQKgIQEAzJkIgEaONVr35Um+ttHaUNF1Ux9gQnckeSpJN/E5YFVaBcDtSW5utDZQz5uTnJfkzqkPAmvhFgCwFG4HwIAEALAkIgAGIgCApREBMAABACyRCIAjEgDAUokAOAIBACyZCIBDEgDA0okAOAQBAKyBCIADEgDAWogAOAABAKyJCIANCQBgbUQAbEAAAGskAmAfAgBYKxEAexAAwJqJADgLAQCsnQiAXQgAoAIRAGcQAEAVIgBOIQCASkQA7BAAQDUiACIAgJpEAOUJAKCqL059AJiSAAAq6pK8ZepDwJQEAFBNF8MfBABQShfDH5IIAKCOLoY/PEMAABV0MfzhNAIAWLsuhj88iwAA1qyL4Q+7EgDAWnUx/OGsBACwRl0Mf9iTAADWpovhD/sSAMCadDH8YSMCAFiLLoY/bEwAAGvQxfCHAxEAwNJ1MfzhwAQAsGRdDH84FAEALFUXwx8OTQAAS9TF8IcjEQDA0nQx/OHIBACwJF0MfxiEAACWoovhD4M51mjd30ryrkZrQ0XXJXnj1IeY0Fti+MOgWgXAhxutC9TTxfCHwbkFAMxZF8MfmhAAwFx1MfyhGQEAzFEXwx+aEgDA3HQx/KE5AQDMSRfDH0YhAIC56GL4w2gEADAHXQx/GJUAAKbWxfCH0QkAYEpdDH+YhAAAptLF8IfJCABgCl0Mf5iUAADG1sXwh8kJAGBMXQx/mAUBAIyli+EPsyEAgDF0MfxhVgQA0FoXwx9mRwAALXUx/GGWBADQShfDH2ZLAAAtdDH8YdYEADC0LoY/zJ4AAIbUxfCHRRAAwFC6GP6wGAIAGEIXwx8WRQAAR9XF8IfFEQDAUXQx/GGRBABwWF0Mf1gsAQAcRhfDHxZNAAAH1cXwh8UTAMBBdDH8YRUEALCpLoY/rIYAADbRxfCHVREAwH66GP6wOgIA2EsXwx9WSQAAZ9PF8IfVEgDAbroY/rBqAgA4UxfDH1ZPAACn6mL4QwkCAHhaF8MfyhAAQGL4QzkCAOhi+EM5AgBq62L4Q0mtAuCdSbYX8gNVdTH8oSxXAKCmLoY/lCYAoJ4uhj+UJwCgli6GPxABAJV0MfyBHQIAauhi+AOnEACwfl0Mf+AMAgDWrYvhD+xCAMB6dTH8gbMQALBOXQx/YA8CANani+EP7EMAwLp0MfyBDQgAWI8uhj+wIQEA69DF8AcOQADA8nUx/IEDEgCwbF0Mf+AQBAAsVxfDHzgkAQDL1MXwB45AAMDydDH8gSMSALAsXQx/YAACAJaji+EPDOTY1AcANvI3Sd419SGA9XAFAJbhC1MfAFgXAQAABQkAAChIAABAQQIAAAoSAABQkAAAgIIEAAAUJAAAoCABAAAFCQAAKEgAAEBBAgAAChIAAFCQAACAggQAABQkAACgIAEAAAUJAAAoSAAAQEECAAAKEgAAUJAAAICCBAAAFCQAAKAgAQAABQkAAChIAABAQQIAAAoSAABQkAAAgIIEAAAUJAAAoCABAAAFCQAAKEgAAEBBAgAAChIAAFCQAACAggQAABQkAACgIAEAAAUJAAAoSAAAQEECAAAKEgAAUJAAAICCBAAAFCQAAKAgAQAABQkAAChIAABAQQIAAAoSAABQkAAAgIIEAAAUJAAAoCABAAAFCQAAKEgAAEBBAgAAChIAAFCQAACAgo41Wne70botfO/UBwCAPTSZqa0C4MlG67Zw79QHAIA9PN5i0Va3AB5rtC4AVNNkpgoAAJi3L7RYtFUANDksABS0qCsAn220LgBU81CLRVsFwD83WhcAqmkyU7e2txu8XbC1dVGSR5NsDb84AJSxneTibG8P/iZAy4cAjzdaGwCqeCgLew0wSe5ruDYAVPCxVgu3DID3NVwbACr421YLtwyAZocGgCKazdJWDwEm/QOAx5N85fAbAMDqPZzka5Jsp8GsbnkFYDvJexuuDwBr9p40/HK91l8HfE/j9QFgrd7RcvGWtwCS/jbAA0m+YfhNAGC1PpPkqjx9BWBhtwCS/uB/2ngPAFibu9Pw8n/S/gpA0j/A8GCSrxh+IwBYnafS/9//lz9Qb4FXAJLk39OXDACwv7dlhE/THeMKQJJcmeTTSc4dfjMAWI3/TXJ1kn897U8XegUgSf4tngUAgP28PWcO/0bGugKQJC9M/5WGzxt+QwBYvM8nuTbJiWf9ZsFXAJLkkSS/OuJ+ALAkb8puw7+RMa8AJH1wfCjJdcNvCgCL9ffpZ+OXdv3twq8AJP1/2M8m+eLI+wLAXD2Z5A052/BvZOwASJJ/TPILE+wLAHP080k+PvamY98CONXdSW4dfnMAWIw/T3LLvn+rwayeMgAuSPKBJN8+/AEAYPbuS/KK9LcA9raCZwBO9USSVyf55IRnAIApPJDkpmwy/BuZMgCS5D+SvCr9BwUBQAXH08++R6Y8xNQBkCQPJfmBJA9PfRAAaOzhJN+X5F8mPscsAiBJ7k9yfdwOAGC9Hkx/z//+qQ+SzCcAkr6Grk//QUEAsCYfTfLy9Pf+Z2FOAZAkJ9NfGrl74nMAwFD+OMmN6Z97m40pXwPcz2uT/FGSS4ZYDABG9liSn0vyZ0deaWWfA7CJa5Lck+RlQy0IACP4cPoPu/v0IKut7HMANvGp9PdMbs2I35AEAId0MskvJbkhQw3/RuZ+BeBUlyZ5a5KfTnJuiw0A4JD+O8kfJnlzks8PvnrBWwC7eWGS29N/ecIFLTcCgH08keRtSX4zyWeb7SIATnN5ktuSvD7JVWNsCAA7Hkj/jNrvJflc890EwO67pX9O4JYkNyd5wZibA1DGiSTvTP9U/0dG3VkA7L9zkm9J/77ljUm+K/2zAwBwUP+Z/ltr37fz8/EkDYbmBgTAoVyR5Nr0rxRek/5zBZ6f5ML0zxB4jgCgpid2fh5P/+Deo+nfPvvkzs983j5bTAAAALM2988BAAAaEAAAUJAAAICCBAAAFCQAAKAgAQAABQkAAChIAABAQQIAAAoSAABQkAAAgIIEAAAUJAAAoCABAAAFCQAAKEgAAEBBAgAAChIAAFCQAACAggQAABQkAACgIAEAAAUJAAAoSAAAQEECAAAKEgAAUJAAAICCBAAAFCQAAKAgAQAABQkAAChIAABAQQIAAAoSAABQkAAAgIIEAAAUJAAAoCABAAAFCQAAKEgAAEBBAgAAChIAAFCQAACAggQAABQkAACgIAEAAAUJAAAoSAAAQEECAAAKEgAAUJAAAICCBAAAFCQAAKAgAQAABQkAAChIAABAQQIAAAoSAABQkAAAgIIEAAAUJAAAoCABAAAFCQAAKOj/AbEIi6J8mRAIAAAAAElFTkSuQmCC;" vertex="1" parent="1">
          <mxGeometry x="503" y="646.11" width="12" height="12" as="geometry" />
        </mxCell>
        <mxCell id="Kzo5I-FJj0xecOTcukf--9" value="" style="shape=image;verticalLabelPosition=bottom;labelBackgroundColor=default;verticalAlign=top;aspect=fixed;imageAspect=0;image=data:image/png,iVBORw0KGgoAAAANSUhEUgAAAgAAAAIACAYAAAD0eNT6AAAACXBIWXMAAA7EAAAOxAGVKw4bAAAFyWlUWHRYTUw6Y29tLmFkb2JlLnhtcAAAAAAAPD94cGFja2V0IGJlZ2luPSLvu78iIGlkPSJXNU0wTXBDZWhpSHpyZVN6TlRjemtjOWQiPz4gPHg6eG1wbWV0YSB4bWxuczp4PSJhZG9iZTpuczptZXRhLyIgeDp4bXB0az0iQWRvYmUgWE1QIENvcmUgOS4xLWMwMDEgNzkuMTQ2Mjg5OSwgMjAyMy8wNi8yNS0yMDowMTo1NSAgICAgICAgIj4gPHJkZjpSREYgeG1sbnM6cmRmPSJodHRwOi8vd3d3LnczLm9yZy8xOTk5LzAyLzIyLXJkZi1zeW50YXgtbnMjIj4gPHJkZjpEZXNjcmlwdGlvbiByZGY6YWJvdXQ9IiIgeG1sbnM6eG1wPSJodHRwOi8vbnMuYWRvYmUuY29tL3hhcC8xLjAvIiB4bWxuczpkYz0iaHR0cDovL3B1cmwub3JnL2RjL2VsZW1lbnRzLzEuMS8iIHhtbG5zOnBob3Rvc2hvcD0iaHR0cDovL25zLmFkb2JlLmNvbS9waG90b3Nob3AvMS4wLyIgeG1sbnM6eG1wTU09Imh0dHA6Ly9ucy5hZG9iZS5jb20veGFwLzEuMC9tbS8iIHhtbG5zOnN0RXZ0PSJodHRwOi8vbnMuYWRvYmUuY29tL3hhcC8xLjAvc1R5cGUvUmVzb3VyY2VFdmVudCMiIHhtcDpDcmVhdG9yVG9vbD0iQWRvYmUgUGhvdG9zaG9wIDI1LjEgKFdpbmRvd3MpIiB4bXA6Q3JlYXRlRGF0ZT0iMjAyNS0wOC0xNFQyMToxODoyMi0wMzowMCIgeG1wOk1vZGlmeURhdGU9IjIwMjUtMDgtMTRUMjE6MjE6NTAtMDM6MDAiIHhtcDpNZXRhZGF0YURhdGU9IjIwMjUtMDgtMTRUMjE6MjE6NTAtMDM6MDAiIGRjOmZvcm1hdD0iaW1hZ2UvcG5nIiBwaG90b3Nob3A6Q29sb3JNb2RlPSIzIiB4bXBNTTpJbnN0YW5jZUlEPSJ4bXAuaWlkOjAyNGNhNTBjLTU1YjEtNzU0Mi04MTZmLTA2NTljMzU1MTg2NSIgeG1wTU06RG9jdW1lbnRJRD0iYWRvYmU6ZG9jaWQ6cGhvdG9zaG9wOjFiZmJjZWU5LWZjY2ItNzc0Ny1hNzkyLTE0ZmZkNDA3MmIzMSIgeG1wTU06T3JpZ2luYWxEb2N1bWVudElEPSJ4bXAuZGlkOjU0NTAxOTk1LWI0YTMtODA0MS04ODU2LTU0YTUxODFlMmRlZiI+IDx4bXBNTTpIaXN0b3J5PiA8cmRmOlNlcT4gPHJkZjpsaSBzdEV2dDphY3Rpb249ImNyZWF0ZWQiIHN0RXZ0Omluc3RhbmNlSUQ9InhtcC5paWQ6NTQ1MDE5OTUtYjRhMy04MDQxLTg4NTYtNTRhNTE4MWUyZGVmIiBzdEV2dDp3aGVuPSIyMDI1LTA4LTE0VDIxOjE4OjIyLTAzOjAwIiBzdEV2dDpzb2Z0d2FyZUFnZW50PSJBZG9iZSBQaG90b3Nob3AgMjUuMSAoV2luZG93cykiLz4gPHJkZjpsaSBzdEV2dDphY3Rpb249InNhdmVkIiBzdEV2dDppbnN0YW5jZUlEPSJ4bXAuaWlkOjAyNGNhNTBjLTU1YjEtNzU0Mi04MTZmLTA2NTljMzU1MTg2NSIgc3RFdnQ6d2hlbj0iMjAyNS0wOC0xNFQyMToyMTo1MC0wMzowMCIgc3RFdnQ6c29mdHdhcmVBZ2VudD0iQWRvYmUgUGhvdG9zaG9wIDI1LjEgKFdpbmRvd3MpIiBzdEV2dDpjaGFuZ2VkPSIvIi8+IDwvcmRmOlNlcT4gPC94bXBNTTpIaXN0b3J5PiA8L3JkZjpEZXNjcmlwdGlvbj4gPC9yZGY6UkRGPiA8L3g6eG1wbWV0YT4gPD94cGFja2V0IGVuZD0iciI/Pp7yGbQAABHdSURBVHic7d1bjG5nXcfx38BubXqEthRPqWjT0nhAvUBKrcSiiFivlKKmSg0eEhujlmhaEg2LcGGNF5oY4yEipR4SgUtETaMkHAJBy41UBNqgFnfTLW4sPVA1Ml6sadl7d/bMOzPrWaf/55NMmuzZfZ6nV/9v1+F9t7a3twMA1PKcqQ8AAIxPAABAQQIAAAoSAABQkAAAgIIEAAAUJAAAoCABAAAFCQAAKEgAAEBBAgAAChIAAFCQAACAggQAABQkAACgIAEAAAUJAAAoSAAAQEECAAAKEgAAUJAAAICCBAAAFCQAAKAgAQAABQkAAChIAABAQQIAAAoSAABQkAAAgIIEAAAUJAAAoCABAAAFCQAAKEgAAEBBAgAAChIAAFCQAACAggQAABQkAACgIAEAAAUJAAAoSAAAQEECAAAKEgAAUJAAAICCBAAAFCQAAKAgAQAABQkAAChIAABAQQIAAAoSAABQkAAAgIIEAAAUJAAAoCABAAAFCQAAKEgAAEBBAgAAChIAAFCQAACAggQAABQkAACgoGNNVt3aarLsIb0gyYuTXJvkmiSXJHl+kguTXLDzA0A9T+z8PJ7kv5I8muRTOz+fSHJispOdaXt78CXbBMC0vjHJK5PcmOQVSS6f9jgALNTJJB9I8nc7P/cnGX4ST2Rru0FVTHAF4FuT3JrkR5J89dibA1DCI0n+IsmfJPmHUXduMKuXHAAXJvmpJG9I8pIxNgSAHZ9I8o4kf5D+9kFbAiBJclGS25L8SpLLWm4EAPt4LMnbk9yV5OFmuxQPgPOS3JHkjUkubrEBABzSk0l+J8lb0z9YOKzCAfDKJL+b/kl+AJir40nelOSeQVctGACXJ/n9JD881IIAMIK/Tv+c2vFBVisWAN+R/mnLFw2xGACM7HPp31B775FXajCr5/hJgM9Jf/nkQzH8AViuy5O8J8mvZ4afuzO3KwDnpn+t4keHOwwATO7eJD+U/lMHD27ltwAuSPLuJN8/7GEAYBY+muSm9LcGDmbFAXBZkr9K8tLhDwMAs/FPSV6Vgz4cuNIAOD/9pZHrhz8IAMzO/em/q+bkxv/GCh8CPCf9ZX/DH4Aqvin9mwGTfhvtlAGwlf7jE18z4RkAYAovS/+q+3OnOsCUAXB7klsm3B8ApnRTkl+bavOpngF4aZIPpn/tDwCq+lL6t9/u3fNvreQhwOcl+ViSrx9+YwBYnBNJvi17fZvgSh4C/O0Y/gDwtCvSf5PgqMa+AnBDkvenfwAQAPiyH0zyl7v+ZuG3AI4luS/JS4bfEAAW78Ek35zkqWf9ZuG3AH4xhj8AnM1VSX55rM3GugJwfpLPpL/PAQDs7mT6b8J97LQ/XfAVgJ+J4Q8A+7k0yW1jbDTGFYBzkjyQ5MrhNwKA1TmR/m25J5/5k4VeAfixGP4AsKkrMsIn5Y4RAD85wh4AsCavb71B61sAV6Z/+G/qbx0EgCXZTnJ1+lcDF3kL4CdG2AMA1mYryY+33KD1cL658foAsFavbbl4y1sAl6V/ktEVAAA4uO0kX5XkkaXdAviexusDwJptJfnuVou3HNA3NlwbACpoNktbBsANDdcGgAq+s9XCrZ4BeG6Sx5OcN/ziAFDG/yQ5P9vb/zf0wq2uALwohj8AHNW5Sb6uxcKtAuDaRusCQDUvbrFoqwC4qtG6AFDN1S0WbRUAlzZaFwCquaTFoq0C4MJG6wJANRe1WLRVADQ5LAAUdHGLRY+1WDTLugJw59QHAGASd019gA01+Z/qVgFwTqN1W/iNqQ8AwCSWEgBNZqrP6geAggQAABQkAACgIAEAAAUJAAAoSAAAQEECAAAKEgAAUJAAAICCBAAAFCQAAKAgAQAABQkAAChIAABAQQIAAAoSAABQkAAAgIIEAAAUJAAAoCABAAAFCQAAKEgAAEBBAgAAChIAAFCQAACAggQAABQkAACgIAEAAAUJAAAoSAAAQEECAAAKEgAAUJAAAICCBAAAFCQAAKAgAQAABQkAAChIAABAQQIAAAoSAABQkAAAgIIEAAAUJAAAoCABAAAFCQAAKEgAAEBBAgAAChIAAFCQAACAggQAABQkAACgIAEAAAUJAAAoSAAAQEECAAAKEgAAUJAAAICCBAAAFCQAAKAgAQAABQkAAChIAABAQQIAluHiqQ8ArIsAgGV4dZK7pj4EsB4CAJbjjogAYCACAJZFBACDEACwPCIAODIBAMskAoAjEQCwXCIAODQBAMsmAoBDEQCwfCIAODABAOsgAoADEQCwHiIA2JgAgHURAcBGBACsjwgA9iUAYJ1EALAnAQDrJQKAsxIAsG4iANiVAID1EwHAswgAqEEEAKcRAFCHCACeIQCgFhEAJBEAUJEIAAQAFCUCoLhjjdZ9XaN1geHcsfPPOyc9BTAJVwCgNlcCoCgBAIgAKEgAAIkIgHIEAPA0EQCFCADgVCIAihAAwJlEABQgAIDdiABYOQEAnI0IgBUTAMBeRACslAAA9iMCYIUEALAJEQArIwCATYkAWBEBAByECICVEADAQYkAWAEBAByGCICFEwDAYYkAWDABAByFCICFEgDAUYkAWCABAAxBBMDCCABgKCIAFkQAAEMSAbAQAgAYmgiABRAAQAsiAGZOAACtiACYMQEAtCQCYKYEANCaCIAZEgDAGEQAzIwAAMYiAmBGBAAwJhEAMyEAgLGJAJgBAQBMQQTAxAQAMBURABMSAMCURABMRAAAUxMBMAEBAMyBCICRCQBgLkQAjEgAAHMiAmAkAgCYGxEAIxAAwByJAGhMAABzJQKgIQEAzJkIgEaONVr35Um+ttHaUNF1Ux9gQnckeSpJN/E5YFVaBcDtSW5utDZQz5uTnJfkzqkPAmvhFgCwFG4HwIAEALAkIgAGIgCApREBMAABACyRCIAjEgDAUokAOAIBACyZCIBDEgDA0okAOAQBAKyBCIADEgDAWogAOAABAKyJCIANCQBgbUQAbEAAAGskAmAfAgBYKxEAexAAwJqJADgLAQCsnQiAXQgAoAIRAGcQAEAVIgBOIQCASkQA7BAAQDUiACIAgJpEAOUJAKCqL059AJiSAAAq6pK8ZepDwJQEAFBNF8MfBABQShfDH5IIAKCOLoY/PEMAABV0MfzhNAIAWLsuhj88iwAA1qyL4Q+7EgDAWnUx/OGsBACwRl0Mf9iTAADWpovhD/sSAMCadDH8YSMCAFiLLoY/bEwAAGvQxfCHAxEAwNJ1MfzhwAQAsGRdDH84FAEALFUXwx8OTQAAS9TF8IcjEQDA0nQx/OHIBACwJF0MfxiEAACWoovhD4M51mjd30ryrkZrQ0XXJXnj1IeY0Fti+MOgWgXAhxutC9TTxfCHwbkFAMxZF8MfmhAAwFx1MfyhGQEAzFEXwx+aEgDA3HQx/KE5AQDMSRfDH0YhAIC56GL4w2gEADAHXQx/GJUAAKbWxfCH0QkAYEpdDH+YhAAAptLF8IfJCABgCl0Mf5iUAADG1sXwh8kJAGBMXQx/mAUBAIyli+EPsyEAgDF0MfxhVgQA0FoXwx9mRwAALXUx/GGWBADQShfDH2ZLAAAtdDH8YdYEADC0LoY/zJ4AAIbUxfCHRRAAwFC6GP6wGAIAGEIXwx8WRQAAR9XF8IfFEQDAUXQx/GGRBABwWF0Mf1gsAQAcRhfDHxZNAAAH1cXwh8UTAMBBdDH8YRUEALCpLoY/rIYAADbRxfCHVREAwH66GP6wOgIA2EsXwx9WSQAAZ9PF8IfVEgDAbroY/rBqAgA4UxfDH1ZPAACn6mL4QwkCAHhaF8MfyhAAQGL4QzkCAOhi+EM5AgBq62L4Q0mtAuCdSbYX8gNVdTH8oSxXAKCmLoY/lCYAoJ4uhj+UJwCgli6GPxABAJV0MfyBHQIAauhi+AOnEACwfl0Mf+AMAgDWrYvhD+xCAMB6dTH8gbMQALBOXQx/YA8CANani+EP7EMAwLp0MfyBDQgAWI8uhj+wIQEA69DF8AcOQADA8nUx/IEDEgCwbF0Mf+AQBAAsVxfDHzgkAQDL1MXwB45AAMDydDH8gSMSALAsXQx/YAACAJaji+EPDOTY1AcANvI3Sd419SGA9XAFAJbhC1MfAFgXAQAABQkAAChIAABAQQIAAAoSAABQkAAAgIIEAAAUJAAAoCABAAAFCQAAKEgAAEBBAgAAChIAAFCQAACAggQAABQkAACgIAEAAAUJAAAoSAAAQEECAAAKEgAAUJAAAICCBAAAFCQAAKAgAQAABQkAAChIAABAQQIAAAoSAABQkAAAgIIEAAAUJAAAoCABAAAFCQAAKEgAAEBBAgAAChIAAFCQAACAggQAABQkAACgIAEAAAUJAAAoSAAAQEECAAAKEgAAUJAAAICCBAAAFCQAAKAgAQAABQkAAChIAABAQQIAAAoSAABQkAAAgIIEAAAUJAAAoCABAAAFCQAAKEgAAEBBAgAAChIAAFCQAACAgo41Wne70botfO/UBwCAPTSZqa0C4MlG67Zw79QHAIA9PN5i0Va3AB5rtC4AVNNkpgoAAJi3L7RYtFUANDksABS0qCsAn220LgBU81CLRVsFwD83WhcAqmkyU7e2txu8XbC1dVGSR5NsDb84AJSxneTibG8P/iZAy4cAjzdaGwCqeCgLew0wSe5ruDYAVPCxVgu3DID3NVwbACr421YLtwyAZocGgCKazdJWDwEm/QOAx5N85fAbAMDqPZzka5Jsp8GsbnkFYDvJexuuDwBr9p40/HK91l8HfE/j9QFgrd7RcvGWtwCS/jbAA0m+YfhNAGC1PpPkqjx9BWBhtwCS/uB/2ngPAFibu9Pw8n/S/gpA0j/A8GCSrxh+IwBYnafS/9//lz9Qb4FXAJLk39OXDACwv7dlhE/THeMKQJJcmeTTSc4dfjMAWI3/TXJ1kn897U8XegUgSf4tngUAgP28PWcO/0bGugKQJC9M/5WGzxt+QwBYvM8nuTbJiWf9ZsFXAJLkkSS/OuJ+ALAkb8puw7+RMa8AJH1wfCjJdcNvCgCL9ffpZ+OXdv3twq8AJP1/2M8m+eLI+wLAXD2Z5A052/BvZOwASJJ/TPILE+wLAHP080k+PvamY98CONXdSW4dfnMAWIw/T3LLvn+rwayeMgAuSPKBJN8+/AEAYPbuS/KK9LcA9raCZwBO9USSVyf55IRnAIApPJDkpmwy/BuZMgCS5D+SvCr9BwUBQAXH08++R6Y8xNQBkCQPJfmBJA9PfRAAaOzhJN+X5F8mPscsAiBJ7k9yfdwOAGC9Hkx/z//+qQ+SzCcAkr6Grk//QUEAsCYfTfLy9Pf+Z2FOAZAkJ9NfGrl74nMAwFD+OMmN6Z97m40pXwPcz2uT/FGSS4ZYDABG9liSn0vyZ0deaWWfA7CJa5Lck+RlQy0IACP4cPoPu/v0IKut7HMANvGp9PdMbs2I35AEAId0MskvJbkhQw3/RuZ+BeBUlyZ5a5KfTnJuiw0A4JD+O8kfJnlzks8PvnrBWwC7eWGS29N/ecIFLTcCgH08keRtSX4zyWeb7SIATnN5ktuSvD7JVWNsCAA7Hkj/jNrvJflc890EwO67pX9O4JYkNyd5wZibA1DGiSTvTP9U/0dG3VkA7L9zkm9J/77ljUm+K/2zAwBwUP+Z/ltr37fz8/EkDYbmBgTAoVyR5Nr0rxRek/5zBZ6f5ML0zxB4jgCgpid2fh5P/+Deo+nfPvvkzs983j5bTAAAALM2988BAAAaEAAAUJAAAICCBAAAFCQAAKAgAQAABQkAAChIAABAQQIAAAoSAABQkAAAgIIEAAAUJAAAoCABAAAFCQAAKEgAAEBBAgAAChIAAFCQAACAggQAABQkAACgIAEAAAUJAAAoSAAAQEECAAAKEgAAUJAAAICCBAAAFCQAAKAgAQAABQkAAChIAABAQQIAAAoSAABQkAAAgIIEAAAUJAAAoCABAAAFCQAAKEgAAEBBAgAAChIAAFCQAACAggQAABQkAACgIAEAAAUJAAAoSAAAQEECAAAKEgAAUJAAAICCBAAAFCQAAKAgAQAABQkAAChIAABAQQIAAAoSAABQkAAAgIIEAAAUJAAAoCABAAAFCQAAKOj/AbEIi6J8mRAIAAAAAElFTkSuQmCC;" vertex="1" parent="1">
          <mxGeometry x="574.25" y="617.89" width="12" height="12" as="geometry" />
        </mxCell>
        <mxCell id="Kzo5I-FJj0xecOTcukf--10" value="" style="shape=image;verticalLabelPosition=bottom;labelBackgroundColor=default;verticalAlign=top;aspect=fixed;imageAspect=0;image=data:image/png,iVBORw0KGgoAAAANSUhEUgAAAgAAAAIACAYAAAD0eNT6AAAACXBIWXMAAA7EAAAOxAGVKw4bAAAFyWlUWHRYTUw6Y29tLmFkb2JlLnhtcAAAAAAAPD94cGFja2V0IGJlZ2luPSLvu78iIGlkPSJXNU0wTXBDZWhpSHpyZVN6TlRjemtjOWQiPz4gPHg6eG1wbWV0YSB4bWxuczp4PSJhZG9iZTpuczptZXRhLyIgeDp4bXB0az0iQWRvYmUgWE1QIENvcmUgOS4xLWMwMDEgNzkuMTQ2Mjg5OSwgMjAyMy8wNi8yNS0yMDowMTo1NSAgICAgICAgIj4gPHJkZjpSREYgeG1sbnM6cmRmPSJodHRwOi8vd3d3LnczLm9yZy8xOTk5LzAyLzIyLXJkZi1zeW50YXgtbnMjIj4gPHJkZjpEZXNjcmlwdGlvbiByZGY6YWJvdXQ9IiIgeG1sbnM6eG1wPSJodHRwOi8vbnMuYWRvYmUuY29tL3hhcC8xLjAvIiB4bWxuczpkYz0iaHR0cDovL3B1cmwub3JnL2RjL2VsZW1lbnRzLzEuMS8iIHhtbG5zOnBob3Rvc2hvcD0iaHR0cDovL25zLmFkb2JlLmNvbS9waG90b3Nob3AvMS4wLyIgeG1sbnM6eG1wTU09Imh0dHA6Ly9ucy5hZG9iZS5jb20veGFwLzEuMC9tbS8iIHhtbG5zOnN0RXZ0PSJodHRwOi8vbnMuYWRvYmUuY29tL3hhcC8xLjAvc1R5cGUvUmVzb3VyY2VFdmVudCMiIHhtcDpDcmVhdG9yVG9vbD0iQWRvYmUgUGhvdG9zaG9wIDI1LjEgKFdpbmRvd3MpIiB4bXA6Q3JlYXRlRGF0ZT0iMjAyNS0wOC0xNFQyMToxODoyMi0wMzowMCIgeG1wOk1vZGlmeURhdGU9IjIwMjUtMDgtMTRUMjE6MjE6NTAtMDM6MDAiIHhtcDpNZXRhZGF0YURhdGU9IjIwMjUtMDgtMTRUMjE6MjE6NTAtMDM6MDAiIGRjOmZvcm1hdD0iaW1hZ2UvcG5nIiBwaG90b3Nob3A6Q29sb3JNb2RlPSIzIiB4bXBNTTpJbnN0YW5jZUlEPSJ4bXAuaWlkOjAyNGNhNTBjLTU1YjEtNzU0Mi04MTZmLTA2NTljMzU1MTg2NSIgeG1wTU06RG9jdW1lbnRJRD0iYWRvYmU6ZG9jaWQ6cGhvdG9zaG9wOjFiZmJjZWU5LWZjY2ItNzc0Ny1hNzkyLTE0ZmZkNDA3MmIzMSIgeG1wTU06T3JpZ2luYWxEb2N1bWVudElEPSJ4bXAuZGlkOjU0NTAxOTk1LWI0YTMtODA0MS04ODU2LTU0YTUxODFlMmRlZiI+IDx4bXBNTTpIaXN0b3J5PiA8cmRmOlNlcT4gPHJkZjpsaSBzdEV2dDphY3Rpb249ImNyZWF0ZWQiIHN0RXZ0Omluc3RhbmNlSUQ9InhtcC5paWQ6NTQ1MDE5OTUtYjRhMy04MDQxLTg4NTYtNTRhNTE4MWUyZGVmIiBzdEV2dDp3aGVuPSIyMDI1LTA4LTE0VDIxOjE4OjIyLTAzOjAwIiBzdEV2dDpzb2Z0d2FyZUFnZW50PSJBZG9iZSBQaG90b3Nob3AgMjUuMSAoV2luZG93cykiLz4gPHJkZjpsaSBzdEV2dDphY3Rpb249InNhdmVkIiBzdEV2dDppbnN0YW5jZUlEPSJ4bXAuaWlkOjAyNGNhNTBjLTU1YjEtNzU0Mi04MTZmLTA2NTljMzU1MTg2NSIgc3RFdnQ6d2hlbj0iMjAyNS0wOC0xNFQyMToyMTo1MC0wMzowMCIgc3RFdnQ6c29mdHdhcmVBZ2VudD0iQWRvYmUgUGhvdG9zaG9wIDI1LjEgKFdpbmRvd3MpIiBzdEV2dDpjaGFuZ2VkPSIvIi8+IDwvcmRmOlNlcT4gPC94bXBNTTpIaXN0b3J5PiA8L3JkZjpEZXNjcmlwdGlvbj4gPC9yZGY6UkRGPiA8L3g6eG1wbWV0YT4gPD94cGFja2V0IGVuZD0iciI/Pp7yGbQAABHdSURBVHic7d1bjG5nXcfx38BubXqEthRPqWjT0nhAvUBKrcSiiFivlKKmSg0eEhujlmhaEg2LcGGNF5oY4yEipR4SgUtETaMkHAJBy41UBNqgFnfTLW4sPVA1Ml6sadl7d/bMOzPrWaf/55NMmuzZfZ6nV/9v1+F9t7a3twMA1PKcqQ8AAIxPAABAQQIAAAoSAABQkAAAgIIEAAAUJAAAoCABAAAFCQAAKEgAAEBBAgAAChIAAFCQAACAggQAABQkAACgIAEAAAUJAAAoSAAAQEECAAAKEgAAUJAAAICCBAAAFCQAAKAgAQAABQkAAChIAABAQQIAAAoSAABQkAAAgIIEAAAUJAAAoCABAAAFCQAAKEgAAEBBAgAAChIAAFCQAACAggQAABQkAACgIAEAAAUJAAAoSAAAQEECAAAKEgAAUJAAAICCBAAAFCQAAKAgAQAABQkAAChIAABAQQIAAAoSAABQkAAAgIIEAAAUJAAAoCABAAAFCQAAKEgAAEBBAgAAChIAAFCQAACAggQAABQkAACgoGNNVt3aarLsIb0gyYuTXJvkmiSXJHl+kguTXLDzA0A9T+z8PJ7kv5I8muRTOz+fSHJispOdaXt78CXbBMC0vjHJK5PcmOQVSS6f9jgALNTJJB9I8nc7P/cnGX4ST2Rru0FVTHAF4FuT3JrkR5J89dibA1DCI0n+IsmfJPmHUXduMKuXHAAXJvmpJG9I8pIxNgSAHZ9I8o4kf5D+9kFbAiBJclGS25L8SpLLWm4EAPt4LMnbk9yV5OFmuxQPgPOS3JHkjUkubrEBABzSk0l+J8lb0z9YOKzCAfDKJL+b/kl+AJir40nelOSeQVctGACXJ/n9JD881IIAMIK/Tv+c2vFBVisWAN+R/mnLFw2xGACM7HPp31B775FXajCr5/hJgM9Jf/nkQzH8AViuy5O8J8mvZ4afuzO3KwDnpn+t4keHOwwATO7eJD+U/lMHD27ltwAuSPLuJN8/7GEAYBY+muSm9LcGDmbFAXBZkr9K8tLhDwMAs/FPSV6Vgz4cuNIAOD/9pZHrhz8IAMzO/em/q+bkxv/GCh8CPCf9ZX/DH4Aqvin9mwGTfhvtlAGwlf7jE18z4RkAYAovS/+q+3OnOsCUAXB7klsm3B8ApnRTkl+bavOpngF4aZIPpn/tDwCq+lL6t9/u3fNvreQhwOcl+ViSrx9+YwBYnBNJvi17fZvgSh4C/O0Y/gDwtCvSf5PgqMa+AnBDkvenfwAQAPiyH0zyl7v+ZuG3AI4luS/JS4bfEAAW78Ek35zkqWf9ZuG3AH4xhj8AnM1VSX55rM3GugJwfpLPpL/PAQDs7mT6b8J97LQ/XfAVgJ+J4Q8A+7k0yW1jbDTGFYBzkjyQ5MrhNwKA1TmR/m25J5/5k4VeAfixGP4AsKkrMsIn5Y4RAD85wh4AsCavb71B61sAV6Z/+G/qbx0EgCXZTnJ1+lcDF3kL4CdG2AMA1mYryY+33KD1cL658foAsFavbbl4y1sAl6V/ktEVAAA4uO0kX5XkkaXdAviexusDwJptJfnuVou3HNA3NlwbACpoNktbBsANDdcGgAq+s9XCrZ4BeG6Sx5OcN/ziAFDG/yQ5P9vb/zf0wq2uALwohj8AHNW5Sb6uxcKtAuDaRusCQDUvbrFoqwC4qtG6AFDN1S0WbRUAlzZaFwCquaTFoq0C4MJG6wJANRe1WLRVADQ5LAAUdHGLRY+1WDTLugJw59QHAGASd019gA01+Z/qVgFwTqN1W/iNqQ8AwCSWEgBNZqrP6geAggQAABQkAACgIAEAAAUJAAAoSAAAQEECAAAKEgAAUJAAAICCBAAAFCQAAKAgAQAABQkAAChIAABAQQIAAAoSAABQkAAAgIIEAAAUJAAAoCABAAAFCQAAKEgAAEBBAgAAChIAAFCQAACAggQAABQkAACgIAEAAAUJAAAoSAAAQEECAAAKEgAAUJAAAICCBAAAFCQAAKAgAQAABQkAAChIAABAQQIAAAoSAABQkAAAgIIEAAAUJAAAoCABAAAFCQAAKEgAAEBBAgAAChIAAFCQAACAggQAABQkAACgIAEAAAUJAAAoSAAAQEECAAAKEgAAUJAAAICCBAAAFCQAAKAgAQAABQkAAChIAABAQQIAluHiqQ8ArIsAgGV4dZK7pj4EsB4CAJbjjogAYCACAJZFBACDEACwPCIAODIBAMskAoAjEQCwXCIAODQBAMsmAoBDEQCwfCIAODABAOsgAoADEQCwHiIA2JgAgHURAcBGBACsjwgA9iUAYJ1EALAnAQDrJQKAsxIAsG4iANiVAID1EwHAswgAqEEEAKcRAFCHCACeIQCgFhEAJBEAUJEIAAQAFCUCoLhjjdZ9XaN1geHcsfPPOyc9BTAJVwCgNlcCoCgBAIgAKEgAAIkIgHIEAPA0EQCFCADgVCIAihAAwJlEABQgAIDdiABYOQEAnI0IgBUTAMBeRACslAAA9iMCYIUEALAJEQArIwCATYkAWBEBAByECICVEADAQYkAWAEBAByGCICFEwDAYYkAWDABAByFCICFEgDAUYkAWCABAAxBBMDCCABgKCIAFkQAAEMSAbAQAgAYmgiABRAAQAsiAGZOAACtiACYMQEAtCQCYKYEANCaCIAZEgDAGEQAzIwAAMYiAmBGBAAwJhEAMyEAgLGJAJgBAQBMQQTAxAQAMBURABMSAMCURABMRAAAUxMBMAEBAMyBCICRCQBgLkQAjEgAAHMiAmAkAgCYGxEAIxAAwByJAGhMAABzJQKgIQEAzJkIgEaONVr35Um+ttHaUNF1Ux9gQnckeSpJN/E5YFVaBcDtSW5utDZQz5uTnJfkzqkPAmvhFgCwFG4HwIAEALAkIgAGIgCApREBMAABACyRCIAjEgDAUokAOAIBACyZCIBDEgDA0okAOAQBAKyBCIADEgDAWogAOAABAKyJCIANCQBgbUQAbEAAAGskAmAfAgBYKxEAexAAwJqJADgLAQCsnQiAXQgAoAIRAGcQAEAVIgBOIQCASkQA7BAAQDUiACIAgJpEAOUJAKCqL059AJiSAAAq6pK8ZepDwJQEAFBNF8MfBABQShfDH5IIAKCOLoY/PEMAABV0MfzhNAIAWLsuhj88iwAA1qyL4Q+7EgDAWnUx/OGsBACwRl0Mf9iTAADWpovhD/sSAMCadDH8YSMCAFiLLoY/bEwAAGvQxfCHAxEAwNJ1MfzhwAQAsGRdDH84FAEALFUXwx8OTQAAS9TF8IcjEQDA0nQx/OHIBACwJF0MfxiEAACWoovhD4M51mjd30ryrkZrQ0XXJXnj1IeY0Fti+MOgWgXAhxutC9TTxfCHwbkFAMxZF8MfmhAAwFx1MfyhGQEAzFEXwx+aEgDA3HQx/KE5AQDMSRfDH0YhAIC56GL4w2gEADAHXQx/GJUAAKbWxfCH0QkAYEpdDH+YhAAAptLF8IfJCABgCl0Mf5iUAADG1sXwh8kJAGBMXQx/mAUBAIyli+EPsyEAgDF0MfxhVgQA0FoXwx9mRwAALXUx/GGWBADQShfDH2ZLAAAtdDH8YdYEADC0LoY/zJ4AAIbUxfCHRRAAwFC6GP6wGAIAGEIXwx8WRQAAR9XF8IfFEQDAUXQx/GGRBABwWF0Mf1gsAQAcRhfDHxZNAAAH1cXwh8UTAMBBdDH8YRUEALCpLoY/rIYAADbRxfCHVREAwH66GP6wOgIA2EsXwx9WSQAAZ9PF8IfVEgDAbroY/rBqAgA4UxfDH1ZPAACn6mL4QwkCAHhaF8MfyhAAQGL4QzkCAOhi+EM5AgBq62L4Q0mtAuCdSbYX8gNVdTH8oSxXAKCmLoY/lCYAoJ4uhj+UJwCgli6GPxABAJV0MfyBHQIAauhi+AOnEACwfl0Mf+AMAgDWrYvhD+xCAMB6dTH8gbMQALBOXQx/YA8CANani+EP7EMAwLp0MfyBDQgAWI8uhj+wIQEA69DF8AcOQADA8nUx/IEDEgCwbF0Mf+AQBAAsVxfDHzgkAQDL1MXwB45AAMDydDH8gSMSALAsXQx/YAACAJaji+EPDOTY1AcANvI3Sd419SGA9XAFAJbhC1MfAFgXAQAABQkAAChIAABAQQIAAAoSAABQkAAAgIIEAAAUJAAAoCABAAAFCQAAKEgAAEBBAgAAChIAAFCQAACAggQAABQkAACgIAEAAAUJAAAoSAAAQEECAAAKEgAAUJAAAICCBAAAFCQAAKAgAQAABQkAAChIAABAQQIAAAoSAABQkAAAgIIEAAAUJAAAoCABAAAFCQAAKEgAAEBBAgAAChIAAFCQAACAggQAABQkAACgIAEAAAUJAAAoSAAAQEECAAAKEgAAUJAAAICCBAAAFCQAAKAgAQAABQkAAChIAABAQQIAAAoSAABQkAAAgIIEAAAUJAAAoCABAAAFCQAAKEgAAEBBAgAAChIAAFCQAACAgo41Wne70botfO/UBwCAPTSZqa0C4MlG67Zw79QHAIA9PN5i0Va3AB5rtC4AVNNkpgoAAJi3L7RYtFUANDksABS0qCsAn220LgBU81CLRVsFwD83WhcAqmkyU7e2txu8XbC1dVGSR5NsDb84AJSxneTibG8P/iZAy4cAjzdaGwCqeCgLew0wSe5ruDYAVPCxVgu3DID3NVwbACr421YLtwyAZocGgCKazdJWDwEm/QOAx5N85fAbAMDqPZzka5Jsp8GsbnkFYDvJexuuDwBr9p40/HK91l8HfE/j9QFgrd7RcvGWtwCS/jbAA0m+YfhNAGC1PpPkqjx9BWBhtwCS/uB/2ngPAFibu9Pw8n/S/gpA0j/A8GCSrxh+IwBYnafS/9//lz9Qb4FXAJLk39OXDACwv7dlhE/THeMKQJJcmeTTSc4dfjMAWI3/TXJ1kn897U8XegUgSf4tngUAgP28PWcO/0bGugKQJC9M/5WGzxt+QwBYvM8nuTbJiWf9ZsFXAJLkkSS/OuJ+ALAkb8puw7+RMa8AJH1wfCjJdcNvCgCL9ffpZ+OXdv3twq8AJP1/2M8m+eLI+wLAXD2Z5A052/BvZOwASJJ/TPILE+wLAHP080k+PvamY98CONXdSW4dfnMAWIw/T3LLvn+rwayeMgAuSPKBJN8+/AEAYPbuS/KK9LcA9raCZwBO9USSVyf55IRnAIApPJDkpmwy/BuZMgCS5D+SvCr9BwUBQAXH08++R6Y8xNQBkCQPJfmBJA9PfRAAaOzhJN+X5F8mPscsAiBJ7k9yfdwOAGC9Hkx/z//+qQ+SzCcAkr6Grk//QUEAsCYfTfLy9Pf+Z2FOAZAkJ9NfGrl74nMAwFD+OMmN6Z97m40pXwPcz2uT/FGSS4ZYDABG9liSn0vyZ0deaWWfA7CJa5Lck+RlQy0IACP4cPoPu/v0IKut7HMANvGp9PdMbs2I35AEAId0MskvJbkhQw3/RuZ+BeBUlyZ5a5KfTnJuiw0A4JD+O8kfJnlzks8PvnrBWwC7eWGS29N/ecIFLTcCgH08keRtSX4zyWeb7SIATnN5ktuSvD7JVWNsCAA7Hkj/jNrvJflc890EwO67pX9O4JYkNyd5wZibA1DGiSTvTP9U/0dG3VkA7L9zkm9J/77ljUm+K/2zAwBwUP+Z/ltr37fz8/EkDYbmBgTAoVyR5Nr0rxRek/5zBZ6f5ML0zxB4jgCgpid2fh5P/+Deo+nfPvvkzs983j5bTAAAALM2988BAAAaEAAAUJAAAICCBAAAFCQAAKAgAQAABQkAAChIAABAQQIAAAoSAABQkAAAgIIEAAAUJAAAoCABAAAFCQAAKEgAAEBBAgAAChIAAFCQAACAggQAABQkAACgIAEAAAUJAAAoSAAAQEECAAAKEgAAUJAAAICCBAAAFCQAAKAgAQAABQkAAChIAABAQQIAAAoSAABQkAAAgIIEAAAUJAAAoCABAAAFCQAAKEgAAEBBAgAAChIAAFCQAACAggQAABQkAACgIAEAAAUJAAAoSAAAQEECAAAKEgAAUJAAAICCBAAAFCQAAKAgAQAABQkAAChIAABAQQIAAAoSAABQkAAAgIIEAAAUJAAAoCABAAAFCQAAKOj/AbEIi6J8mRAIAAAAAElFTkSuQmCC;" vertex="1" parent="1">
          <mxGeometry x="627.75" y="575.89" width="12" height="12" as="geometry" />
        </mxCell>
      </root>
    </mxGraphModel>
  </diagram>
</mxfile>
